ffmpeg started on 2025-03-25 at 15:44:43
Report written to "D:\Convert\FFMetrics\reports\vmaf_report-6.txt"
Log level: 32
Command line:
ffmpeg -hide_banner -nostdin -r 24000/1001 -i "G:\\\xc0\xed\xe8\xec\xe5\\\xce\xed\xe3\xee\xe8\xed\xe3\xe8\\!_35_\xcb\xe5\xf2\xee_2024\\DreamCast\\\xc0\xeb\xff \xe8\xed\xee\xe3\xe4\xe0 \xea\xee\xea\xe5\xf2\xed\xe8\xf7\xe0\xe5\xf2 \xf1\xee \xec\xed\xee\xe9 \xef\xee-\xf0\xf3\xf1\xf1\xea\xe8\\[DC] Roshidere - 09_Telegram_HEVC.mkv" -r 24000/1001 -i "G:\\\xc0\xed\xe8\xec\xe5\\\xce\xed\xe3\xee\xe8\xed\xe3\xe8\\!_35_\xcb\xe5\xf2\xee_2024\\DreamCast\\\xc0\xeb\xff \xe8\xed\xee\xe3\xe4\xe0 \xea\xee\xea\xe5\xf2\xed\xe8\xf7\xe0\xe5\xf2 \xf1\xee \xec\xed\xee\xe9 \xef\xee-\xf0\xf3\xf1\xf1\xea\xe8\\[DC] Roshidere - 09_Telegram.mp4" -lavfi "[0:v]settb=AVTB,setpts=PTS-STARTPTS,format=pix_fmts=yuv420p10,fps=24000/1001,scale=1920:1080:flags=bicubic[main];[1:v]settb=AVTB,setpts=PTS-STARTPTS,format=pix_fmts=yuv420p,fps=24000/1001,scale=1920:1080:flags=bicubic[ref];[main][ref]libvmaf=eof_action=endall:log_path='D\\:/Convert/FFMetrics/logs/vmaf_logfile-6.txt':n_threads=32:pool=Mean:model=version=vmaf_v0.6.1" -f null -
Input #0, matroska,webm, from 'G:\Аниме\Онгоинги\!_35_Лето_2024\DreamCast\Аля иногда кокетничает со мной по-русски\[DC] Roshidere - 09_Telegram_HEVC.mkv':
  Metadata:
    COMPATIBLE_BRANDS: isomiso2avc1mp41
    MAJOR_BRAND     : isom
    MINOR_VERSION   : 512
    ENCODER         : Lavf61.7.100
  Duration: 00:25:17.27, start: -0.021000, bitrate: 932 kb/s
  Stream #0:0: Video: hevc (Main 10), yuv420p10le(tv, bt709, progressive), 1920x1080 [SAR 1:1 DAR 16:9], 23.98 fps, 23.98 tbr, 1k tbn (default)
      Metadata:
        HANDLER_NAME    : VideoHandler
        VENDOR_ID       : [0][0][0][0]
        ENCODER         : Lavc61.19.100 libx265
        BPS             : 735566
        DURATION        : 00:25:16.473708333
        NUMBER_OF_FRAMES: 36359
        NUMBER_OF_BYTES : 139433355
        _STATISTICS_WRITING_APP: mkvpropedit v66.0.0 ('Josie') 64-bit
        _STATISTICS_WRITING_DATE_UTC: 2025-03-21 11:01:15
        _STATISTICS_TAGS: BPS DURATION NUMBER_OF_FRAMES NUMBER_OF_BYTES
  Stream #0:1: Audio: aac (LC), 48000 Hz, stereo, fltp (default)
      Metadata:
        HANDLER_NAME    : SoundHandler
        VENDOR_ID       : [0][0][0][0]
        ENCODER         : Lavc61.19.100 aac
        BPS             : 193023
        DURATION        : 00:25:17.269000000
        NUMBER_OF_FRAMES: 71123
        NUMBER_OF_BYTES : 36608568
        _STATISTICS_WRITING_APP: mkvpropedit v66.0.0 ('Josie') 64-bit
        _STATISTICS_WRITING_DATE_UTC: 2025-03-21 11:01:15
        _STATISTICS_TAGS: BPS DURATION NUMBER_OF_FRAMES NUMBER_OF_BYTES
Input #1, mov,mp4,m4a,3gp,3g2,mj2, from 'G:\Аниме\Онгоинги\!_35_Лето_2024\DreamCast\Аля иногда кокетничает со мной по-русски\[DC] Roshidere - 09_Telegram.mp4':
  Metadata:
    major_brand     : isom
    minor_version   : 512
    compatible_brands: isomiso2avc1mp41
    encoder         : Lavf60.16.100
  Duration: 00:25:17.22, start: 0.000000, bitrate: 3752 kb/s
  Stream #1:0[0x1](und): Video: h264 (High) (avc1 / 0x31637661), yuv420p(tv, bt709, progressive), 1920x1080 [SAR 1:1 DAR 16:9], 3606 kb/s, 23.98 fps, 23.98 tbr, 24k tbn (default)
      Metadata:
        handler_name    : VideoHandler
        vendor_id       : [0][0][0][0]
        encoder         : Lavc60.31.102 h264_qsv
  Stream #1:1[0x2](und): Audio: aac (HE-AACv2) (mp4a / 0x6134706D), 48000 Hz, stereo, fltp, 144 kb/s (default)
      Metadata:
        handler_name    : SoundHandler
        vendor_id       : [0][0][0][0]
Stream mapping:
  Stream #0:0 (hevc) -> settb:default
  Stream #1:0 (h264) -> settb:default
  libvmaf:default -> Stream #0:0 (wrapped_avframe)
  Stream #0:1 -> #0:1 (aac (native) -> pcm_s16le (native))
Output #0, null, to 'pipe:':
  Metadata:
    COMPATIBLE_BRANDS: isomiso2avc1mp41
    MAJOR_BRAND     : isom
    MINOR_VERSION   : 512
    encoder         : Lavf61.7.100
  Stream #0:0: Video: wrapped_avframe, yuv420p10le(tv, bt709, progressive), 1920x1080 [SAR 1:1 DAR 16:9], q=2-31, 200 kb/s, 23.98 fps, 23.98 tbn
      Metadata:
        encoder         : Lavc61.19.100 wrapped_avframe
  Stream #0:1: Audio: pcm_s16le, 48000 Hz, stereo, s16, 1536 kb/s (default)
      Metadata:
        HANDLER_NAME    : SoundHandler
        VENDOR_ID       : [0][0][0][0]
        _STATISTICS_TAGS: BPS DURATION NUMBER_OF_FRAMES NUMBER_OF_BYTES
        BPS             : 193023
        DURATION        : 00:25:17.269000000
        NUMBER_OF_FRAMES: 71123
        NUMBER_OF_BYTES : 36608568
        _STATISTICS_WRITING_APP: mkvpropedit v66.0.0 ('Josie') 64-bit
        _STATISTICS_WRITING_DATE_UTC: 2025-03-21 11:01:15
        encoder         : Lavc61.19.100 pcm_s16le
frame=   38 fps=0.0 q=-0.0 size=N/A time=00:00:01.58 bitrate=N/A speed=3.05x    frame=   84 fps= 82 q=-0.0 size=N/A time=00:00:03.50 bitrate=N/A speed=3.41x    frame=  130 fps= 84 q=-0.0 size=N/A time=00:00:05.42 bitrate=N/A speed= 3.5x    frame=  176 fps= 85 q=-0.0 size=N/A time=00:00:07.34 bitrate=N/A speed=3.56x    frame=  222 fps= 86 q=-0.0 size=N/A time=00:00:09.25 bitrate=N/A speed=3.58x    frame=  267 fps= 86 q=-0.0 size=N/A time=00:00:11.13 bitrate=N/A speed= 3.6x    frame=  310 fps= 86 q=-0.0 size=N/A time=00:00:12.92 bitrate=N/A speed=3.59x    frame=  358 fps= 87 q=-0.0 size=N/A time=00:00:14.93 bitrate=N/A speed=3.61x    frame=  403 fps= 87 q=-0.0 size=N/A time=00:00:16.80 bitrate=N/A speed=3.62x    frame=  449 fps= 87 q=-0.0 size=N/A time=00:00:18.72 bitrate=N/A speed=3.64x    frame=  496 fps= 87 q=-0.0 size=N/A time=00:00:20.68 bitrate=N/A speed=3.64x    frame=  541 fps= 87 q=-0.0 size=N/A time=00:00:22.56 bitrate=N/A speed=3.65x    frame=  587 fps= 88 q=-0.0 size=N/A time=00:00:24.48 bitrate=N/A speed=3.65x    frame=  633 fps= 88 q=-0.0 size=N/A time=00:00:26.40 bitrate=N/A speed=3.65x    frame=  678 fps= 88 q=-0.0 size=N/A time=00:00:28.27 bitrate=N/A speed=3.65x    frame=  723 fps= 88 q=-0.0 size=N/A time=00:00:30.15 bitrate=N/A speed=3.66x    frame=  767 fps= 87 q=-0.0 size=N/A time=00:00:31.99 bitrate=N/A speed=3.65x    frame=  812 fps= 87 q=-0.0 size=N/A time=00:00:33.86 bitrate=N/A speed=3.65x    frame=  854 fps= 87 q=-0.0 size=N/A time=00:00:35.61 bitrate=N/A speed=3.64x    frame=  901 fps= 87 q=-0.0 size=N/A time=00:00:37.57 bitrate=N/A speed=3.64x    frame=  945 fps= 87 q=-0.0 size=N/A time=00:00:39.41 bitrate=N/A speed=3.64x    frame=  990 fps= 87 q=-0.0 size=N/A time=00:00:41.29 bitrate=N/A speed=3.64x    frame= 1035 fps= 87 q=-0.0 size=N/A time=00:00:43.16 bitrate=N/A speed=3.64x    frame= 1079 fps= 87 q=-0.0 size=N/A time=00:00:45.00 bitrate=N/A speed=3.64x    frame= 1125 fps= 87 q=-0.0 size=N/A time=00:00:46.92 bitrate=N/A speed=3.64x    frame= 1169 fps= 87 q=-0.0 size=N/A time=00:00:48.75 bitrate=N/A speed=3.63x    frame= 1213 fps= 87 q=-0.0 size=N/A time=00:00:50.59 bitrate=N/A speed=3.63x    frame= 1257 fps= 87 q=-0.0 size=N/A time=00:00:52.42 bitrate=N/A speed=3.63x    frame= 1304 fps= 87 q=-0.0 size=N/A time=00:00:54.38 bitrate=N/A speed=3.63x    frame= 1347 fps= 87 q=-0.0 size=N/A time=00:00:56.18 bitrate=N/A speed=3.63x    frame= 1393 fps= 87 q=-0.0 size=N/A time=00:00:58.09 bitrate=N/A speed=3.63x    frame= 1439 fps= 87 q=-0.0 size=N/A time=00:01:00.01 bitrate=N/A speed=3.63x    frame= 1484 fps= 87 q=-0.0 size=N/A time=00:01:01.89 bitrate=N/A speed=3.63x    frame= 1527 fps= 87 q=-0.0 size=N/A time=00:01:03.68 bitrate=N/A speed=3.63x    frame= 1572 fps= 87 q=-0.0 size=N/A time=00:01:05.56 bitrate=N/A speed=3.63x    frame= 1617 fps= 87 q=-0.0 size=N/A time=00:01:07.44 bitrate=N/A speed=3.63x    frame= 1662 fps= 87 q=-0.0 size=N/A time=00:01:09.31 bitrate=N/A speed=3.63x    frame= 1710 fps= 87 q=-0.0 size=N/A time=00:01:11.32 bitrate=N/A speed=3.64x    frame= 1755 fps= 87 q=-0.0 size=N/A time=00:01:13.19 bitrate=N/A speed=3.64x    frame= 1800 fps= 87 q=-0.0 size=N/A time=00:01:15.07 bitrate=N/A speed=3.64x    frame= 1846 fps= 87 q=-0.0 size=N/A time=00:01:16.99 bitrate=N/A speed=3.64x    frame= 1890 fps= 87 q=-0.0 size=N/A time=00:01:18.82 bitrate=N/A speed=3.64x    frame= 1933 fps= 87 q=-0.0 size=N/A time=00:01:20.62 bitrate=N/A speed=3.63x    frame= 1978 fps= 87 q=-0.0 size=N/A time=00:01:22.49 bitrate=N/A speed=3.63x    frame= 2022 fps= 87 q=-0.0 size=N/A time=00:01:24.33 bitrate=N/A speed=3.63x    frame= 2067 fps= 87 q=-0.0 size=N/A time=00:01:26.21 bitrate=N/A speed=3.63x    frame= 2113 fps= 87 q=-0.0 size=N/A time=00:01:28.12 bitrate=N/A speed=3.63x    frame= 2158 fps= 87 q=-0.0 size=N/A time=00:01:30.00 bitrate=N/A speed=3.63x    frame= 2200 fps= 87 q=-0.0 size=N/A time=00:01:31.75 bitrate=N/A speed=3.63x    frame= 2246 fps= 87 q=-0.0 size=N/A time=00:01:33.67 bitrate=N/A speed=3.63x    frame= 2291 fps= 87 q=-0.0 size=N/A time=00:01:35.55 bitrate=N/A speed=3.63x    frame= 2335 fps= 87 q=-0.0 size=N/A time=00:01:37.38 bitrate=N/A speed=3.63x    frame= 2380 fps= 87 q=-0.0 size=N/A time=00:01:39.26 bitrate=N/A speed=3.63x    frame= 2425 fps= 87 q=-0.0 size=N/A time=00:01:41.14 bitrate=N/A speed=3.63x    frame= 2468 fps= 87 q=-0.0 size=N/A time=00:01:42.93 bitrate=N/A speed=3.63x    frame= 2513 fps= 87 q=-0.0 size=N/A time=00:01:44.81 bitrate=N/A speed=3.63x    frame= 2557 fps= 87 q=-0.0 size=N/A time=00:01:46.64 bitrate=N/A speed=3.63x    frame= 2603 fps= 87 q=-0.0 size=N/A time=00:01:48.56 bitrate=N/A speed=3.63x    frame= 2648 fps= 87 q=-0.0 size=N/A time=00:01:50.44 bitrate=N/A speed=3.63x    frame= 2692 fps= 87 q=-0.0 size=N/A time=00:01:52.27 bitrate=N/A speed=3.63x    frame= 2735 fps= 87 q=-0.0 size=N/A time=00:01:54.07 bitrate=N/A speed=3.63x    frame= 2781 fps= 87 q=-0.0 size=N/A time=00:01:55.99 bitrate=N/A speed=3.63x    frame= 2827 fps= 87 q=-0.0 size=N/A time=00:01:57.90 bitrate=N/A speed=3.63x    frame= 2870 fps= 87 q=-0.0 size=N/A time=00:01:59.70 bitrate=N/A speed=3.63x    frame= 2914 fps= 87 q=-0.0 size=N/A time=00:02:01.53 bitrate=N/A speed=3.63x    frame= 2962 fps= 87 q=-0.0 size=N/A time=00:02:03.54 bitrate=N/A speed=3.63x    frame= 3006 fps= 87 q=-0.0 size=N/A time=00:02:05.37 bitrate=N/A speed=3.63x    frame= 3050 fps= 87 q=-0.0 size=N/A time=00:02:07.21 bitrate=N/A speed=3.63x    frame= 3096 fps= 87 q=-0.0 size=N/A time=00:02:09.12 bitrate=N/A speed=3.63x    frame= 3141 fps= 87 q=-0.0 size=N/A time=00:02:11.00 bitrate=N/A speed=3.63x    frame= 3185 fps= 87 q=-0.0 size=N/A time=00:02:12.84 bitrate=N/A speed=3.63x    frame= 3227 fps= 87 q=-0.0 size=N/A time=00:02:14.59 bitrate=N/A speed=3.62x    frame= 3272 fps= 87 q=-0.0 size=N/A time=00:02:16.46 bitrate=N/A speed=3.62x    frame= 3317 fps= 87 q=-0.0 size=N/A time=00:02:18.34 bitrate=N/A speed=3.62x    frame= 3362 fps= 87 q=-0.0 size=N/A time=00:02:20.22 bitrate=N/A speed=3.62x    frame= 3404 fps= 87 q=-0.0 size=N/A time=00:02:21.97 bitrate=N/A speed=3.62x    frame= 3448 fps= 87 q=-0.0 size=N/A time=00:02:23.81 bitrate=N/A speed=3.62x    frame= 3493 fps= 87 q=-0.0 size=N/A time=00:02:25.68 bitrate=N/A speed=3.62x    frame= 3539 fps= 87 q=-0.0 size=N/A time=00:02:27.60 bitrate=N/A speed=3.62x    frame= 3582 fps= 87 q=-0.0 size=N/A time=00:02:29.39 bitrate=N/A speed=3.62x    frame= 3627 fps= 87 q=-0.0 size=N/A time=00:02:31.27 bitrate=N/A speed=3.62x    frame= 3672 fps= 87 q=-0.0 size=N/A time=00:02:33.15 bitrate=N/A speed=3.62x    frame= 3717 fps= 87 q=-0.0 size=N/A time=00:02:35.02 bitrate=N/A speed=3.62x    frame= 3761 fps= 87 q=-0.0 size=N/A time=00:02:36.86 bitrate=N/A speed=3.62x    frame= 3807 fps= 87 q=-0.0 size=N/A time=00:02:38.78 bitrate=N/A speed=3.62x    frame= 3851 fps= 87 q=-0.0 size=N/A time=00:02:40.61 bitrate=N/A speed=3.62x    frame= 3894 fps= 87 q=-0.0 size=N/A time=00:02:42.41 bitrate=N/A speed=3.62x    frame= 3938 fps= 87 q=-0.0 size=N/A time=00:02:44.24 bitrate=N/A speed=3.62x    frame= 3984 fps= 87 q=-0.0 size=N/A time=00:02:46.16 bitrate=N/A speed=3.62x    frame= 4029 fps= 87 q=-0.0 size=N/A time=00:02:48.04 bitrate=N/A speed=3.62x    frame= 4073 fps= 87 q=-0.0 size=N/A time=00:02:49.87 bitrate=N/A speed=3.62x    frame= 4120 fps= 87 q=-0.0 size=N/A time=00:02:51.83 bitrate=N/A speed=3.62x    frame= 4161 fps= 87 q=-0.0 size=N/A time=00:02:53.54 bitrate=N/A speed=3.62x    frame= 4207 fps= 87 q=-0.0 size=N/A time=00:02:55.46 bitrate=N/A speed=3.62x    frame= 4250 fps= 87 q=-0.0 size=N/A time=00:02:57.26 bitrate=N/A speed=3.62x    frame= 4294 fps= 87 q=-0.0 size=N/A time=00:02:59.09 bitrate=N/A speed=3.62x    frame= 4336 fps= 87 q=-0.0 size=N/A time=00:03:00.84 bitrate=N/A speed=3.61x    frame= 4381 fps= 87 q=-0.0 size=N/A time=00:03:02.72 bitrate=N/A speed=3.61x    frame= 4425 fps= 87 q=-0.0 size=N/A time=00:03:04.55 bitrate=N/A speed=3.61x    frame= 4469 fps= 87 q=-0.0 size=N/A time=00:03:06.39 bitrate=N/A speed=3.61x    frame= 4514 fps= 87 q=-0.0 size=N/A time=00:03:08.27 bitrate=N/A speed=3.61x    frame= 4561 fps= 87 q=-0.0 size=N/A time=00:03:10.23 bitrate=N/A speed=3.62x    frame= 4606 fps= 87 q=-0.0 size=N/A time=00:03:12.10 bitrate=N/A speed=3.62x    frame= 4648 fps= 87 q=-0.0 size=N/A time=00:03:13.86 bitrate=N/A speed=3.61x    frame= 4691 fps= 87 q=-0.0 size=N/A time=00:03:15.65 bitrate=N/A speed=3.61x    frame= 4736 fps= 87 q=-0.0 size=N/A time=00:03:17.53 bitrate=N/A speed=3.61x    frame= 4779 fps= 87 q=-0.0 size=N/A time=00:03:19.32 bitrate=N/A speed=3.61x    frame= 4822 fps= 87 q=-0.0 size=N/A time=00:03:21.11 bitrate=N/A speed=3.61x    frame= 4866 fps= 87 q=-0.0 size=N/A time=00:03:22.95 bitrate=N/A speed=3.61x    frame= 4908 fps= 87 q=-0.0 size=N/A time=00:03:24.70 bitrate=N/A speed=3.61x    frame= 4953 fps= 87 q=-0.0 size=N/A time=00:03:26.58 bitrate=N/A speed=3.61x    frame= 4997 fps= 87 q=-0.0 size=N/A time=00:03:28.41 bitrate=N/A speed=3.61x    frame= 5044 fps= 87 q=-0.0 size=N/A time=00:03:30.37 bitrate=N/A speed=3.61x    frame= 5088 fps= 87 q=-0.0 size=N/A time=00:03:32.21 bitrate=N/A speed=3.61x    frame= 5134 fps= 87 q=-0.0 size=N/A time=00:03:34.13 bitrate=N/A speed=3.61x    frame= 5178 fps= 87 q=-0.0 size=N/A time=00:03:35.96 bitrate=N/A speed=3.61x    frame= 5223 fps= 87 q=-0.0 size=N/A time=00:03:37.84 bitrate=N/A speed=3.61x    frame= 5268 fps= 87 q=-0.0 size=N/A time=00:03:39.71 bitrate=N/A speed=3.61x    frame= 5313 fps= 87 q=-0.0 size=N/A time=00:03:41.59 bitrate=N/A speed=3.61x    frame= 5357 fps= 87 q=-0.0 size=N/A time=00:03:43.43 bitrate=N/A speed=3.61x    frame= 5402 fps= 87 q=-0.0 size=N/A time=00:03:45.30 bitrate=N/A speed=3.61x    frame= 5445 fps= 87 q=-0.0 size=N/A time=00:03:47.10 bitrate=N/A speed=3.61x    frame= 5490 fps= 87 q=-0.0 size=N/A time=00:03:48.97 bitrate=N/A speed=3.61x    frame= 5535 fps= 87 q=-0.0 size=N/A time=00:03:50.85 bitrate=N/A speed=3.61x    frame= 5580 fps= 87 q=-0.0 size=N/A time=00:03:52.73 bitrate=N/A speed=3.61x    frame= 5626 fps= 87 q=-0.0 size=N/A time=00:03:54.65 bitrate=N/A speed=3.61x    frame= 5671 fps= 87 q=-0.0 size=N/A time=00:03:56.52 bitrate=N/A speed=3.61x    frame= 5716 fps= 87 q=-0.0 size=N/A time=00:03:58.40 bitrate=N/A speed=3.61x    frame= 5762 fps= 87 q=-0.0 size=N/A time=00:04:00.32 bitrate=N/A speed=3.61x    frame= 5809 fps= 87 q=-0.0 size=N/A time=00:04:02.28 bitrate=N/A speed=3.61x    frame= 5853 fps= 87 q=-0.0 size=N/A time=00:04:04.11 bitrate=N/A speed=3.61x    frame= 5898 fps= 87 q=-0.0 size=N/A time=00:04:05.99 bitrate=N/A speed=3.61x    frame= 5944 fps= 87 q=-0.0 size=N/A time=00:04:07.91 bitrate=N/A speed=3.61x    frame= 5987 fps= 87 q=-0.0 size=N/A time=00:04:09.70 bitrate=N/A speed=3.61x    frame= 6031 fps= 87 q=-0.0 size=N/A time=00:04:11.54 bitrate=N/A speed=3.61x    frame= 6077 fps= 87 q=-0.0 size=N/A time=00:04:13.46 bitrate=N/A speed=3.61x    frame= 6121 fps= 87 q=-0.0 size=N/A time=00:04:15.29 bitrate=N/A speed=3.61x    frame= 6166 fps= 87 q=-0.0 size=N/A time=00:04:17.17 bitrate=N/A speed=3.61x    frame= 6211 fps= 87 q=-0.0 size=N/A time=00:04:19.05 bitrate=N/A speed=3.61x    frame= 6257 fps= 87 q=-0.0 size=N/A time=00:04:20.96 bitrate=N/A speed=3.61x    frame= 6300 fps= 87 q=-0.0 size=N/A time=00:04:22.76 bitrate=N/A speed=3.61x    frame= 6343 fps= 87 q=-0.0 size=N/A time=00:04:24.55 bitrate=N/A speed=3.61x    frame= 6388 fps= 87 q=-0.0 size=N/A time=00:04:26.43 bitrate=N/A speed=3.61x    frame= 6432 fps= 87 q=-0.0 size=N/A time=00:04:28.26 bitrate=N/A speed=3.61x    frame= 6477 fps= 87 q=-0.0 size=N/A time=00:04:30.14 bitrate=N/A speed=3.61x    frame= 6523 fps= 87 q=-0.0 size=N/A time=00:04:32.06 bitrate=N/A speed=3.61x    frame= 6568 fps= 87 q=-0.0 size=N/A time=00:04:33.94 bitrate=N/A speed=3.61x    frame= 6611 fps= 87 q=-0.0 size=N/A time=00:04:35.73 bitrate=N/A speed=3.61x    frame= 6655 fps= 87 q=-0.0 size=N/A time=00:04:37.56 bitrate=N/A speed=3.61x    frame= 6699 fps= 87 q=-0.0 size=N/A time=00:04:39.40 bitrate=N/A speed=3.61x    frame= 6743 fps= 87 q=-0.0 size=N/A time=00:04:41.23 bitrate=N/A speed=3.61x    frame= 6788 fps= 87 q=-0.0 size=N/A time=00:04:43.11 bitrate=N/A speed=3.61x    frame= 6831 fps= 87 q=-0.0 size=N/A time=00:04:44.90 bitrate=N/A speed=3.61x    frame= 6874 fps= 87 q=-0.0 size=N/A time=00:04:46.70 bitrate=N/A speed=3.61x    frame= 6918 fps= 87 q=-0.0 size=N/A time=00:04:48.53 bitrate=N/A speed=3.61x    frame= 6963 fps= 87 q=-0.0 size=N/A time=00:04:50.41 bitrate=N/A speed=3.61x    frame= 7006 fps= 87 q=-0.0 size=N/A time=00:04:52.20 bitrate=N/A speed=3.61x    frame= 7051 fps= 87 q=-0.0 size=N/A time=00:04:54.08 bitrate=N/A speed=3.61x    frame= 7095 fps= 87 q=-0.0 size=N/A time=00:04:55.92 bitrate=N/A speed=3.61x    frame= 7139 fps= 87 q=-0.0 size=N/A time=00:04:57.75 bitrate=N/A speed=3.61x    frame= 7181 fps= 86 q=-0.0 size=N/A time=00:04:59.50 bitrate=N/A speed=3.61x    frame= 7226 fps= 86 q=-0.0 size=N/A time=00:05:01.38 bitrate=N/A speed=3.61x    frame= 7270 fps= 86 q=-0.0 size=N/A time=00:05:03.21 bitrate=N/A speed=3.61x    frame= 7312 fps= 86 q=-0.0 size=N/A time=00:05:04.97 bitrate=N/A speed=3.61x    frame= 7355 fps= 86 q=-0.0 size=N/A time=00:05:06.76 bitrate=N/A speed= 3.6x    frame= 7400 fps= 86 q=-0.0 size=N/A time=00:05:08.64 bitrate=N/A speed=3.61x    frame= 7446 fps= 86 q=-0.0 size=N/A time=00:05:10.56 bitrate=N/A speed=3.61x    frame= 7492 fps= 86 q=-0.0 size=N/A time=00:05:12.47 bitrate=N/A speed=3.61x    frame= 7538 fps= 86 q=-0.0 size=N/A time=00:05:14.39 bitrate=N/A speed=3.61x    frame= 7583 fps= 86 q=-0.0 size=N/A time=00:05:16.27 bitrate=N/A speed=3.61x    frame= 7628 fps= 87 q=-0.0 size=N/A time=00:05:18.15 bitrate=N/A speed=3.61x    frame= 7673 fps= 86 q=-0.0 size=N/A time=00:05:20.02 bitrate=N/A speed=3.61x    frame= 7716 fps= 86 q=-0.0 size=N/A time=00:05:21.82 bitrate=N/A speed=3.61x    frame= 7761 fps= 86 q=-0.0 size=N/A time=00:05:23.69 bitrate=N/A speed=3.61x    frame= 7806 fps= 86 q=-0.0 size=N/A time=00:05:25.57 bitrate=N/A speed=3.61x    frame= 7851 fps= 87 q=-0.0 size=N/A time=00:05:27.45 bitrate=N/A speed=3.61x    frame= 7898 fps= 87 q=-0.0 size=N/A time=00:05:29.41 bitrate=N/A speed=3.61x    frame= 7942 fps= 87 q=-0.0 size=N/A time=00:05:31.24 bitrate=N/A speed=3.61x    frame= 7987 fps= 87 q=-0.0 size=N/A time=00:05:33.12 bitrate=N/A speed=3.61x    frame= 8029 fps= 86 q=-0.0 size=N/A time=00:05:34.87 bitrate=N/A speed=3.61x    frame= 8074 fps= 86 q=-0.0 size=N/A time=00:05:36.75 bitrate=N/A speed=3.61x    frame= 8119 fps= 86 q=-0.0 size=N/A time=00:05:38.62 bitrate=N/A speed=3.61x    frame= 8163 fps= 86 q=-0.0 size=N/A time=00:05:40.46 bitrate=N/A speed=3.61x    frame= 8208 fps= 86 q=-0.0 size=N/A time=00:05:42.34 bitrate=N/A speed=3.61x    frame= 8253 fps= 87 q=-0.0 size=N/A time=00:05:44.21 bitrate=N/A speed=3.61x    frame= 8299 fps= 87 q=-0.0 size=N/A time=00:05:46.13 bitrate=N/A speed=3.61x    frame= 8344 fps= 87 q=-0.0 size=N/A time=00:05:48.01 bitrate=N/A speed=3.61x    frame= 8388 fps= 87 q=-0.0 size=N/A time=00:05:49.84 bitrate=N/A speed=3.61x    frame= 8436 fps= 87 q=-0.0 size=N/A time=00:05:51.85 bitrate=N/A speed=3.61x    frame= 8481 fps= 87 q=-0.0 size=N/A time=00:05:53.72 bitrate=N/A speed=3.61x    frame= 8525 fps= 87 q=-0.0 size=N/A time=00:05:55.56 bitrate=N/A speed=3.61x    frame= 8571 fps= 87 q=-0.0 size=N/A time=00:05:57.48 bitrate=N/A speed=3.61x    frame= 8617 fps= 87 q=-0.0 size=N/A time=00:05:59.40 bitrate=N/A speed=3.61x    frame= 8661 fps= 87 q=-0.0 size=N/A time=00:06:01.23 bitrate=N/A speed=3.61x    frame= 8705 fps= 87 q=-0.0 size=N/A time=00:06:03.07 bitrate=N/A speed=3.61x    frame= 8748 fps= 87 q=-0.0 size=N/A time=00:06:04.86 bitrate=N/A speed=3.61x    frame= 8792 fps= 87 q=-0.0 size=N/A time=00:06:06.69 bitrate=N/A speed=3.61x    frame= 8836 fps= 87 q=-0.0 size=N/A time=00:06:08.53 bitrate=N/A speed=3.61x    frame= 8882 fps= 87 q=-0.0 size=N/A time=00:06:10.45 bitrate=N/A speed=3.61x    frame= 8927 fps= 87 q=-0.0 size=N/A time=00:06:12.33 bitrate=N/A speed=3.61x    frame= 8973 fps= 87 q=-0.0 size=N/A time=00:06:14.24 bitrate=N/A speed=3.61x    frame= 9017 fps= 87 q=-0.0 size=N/A time=00:06:16.08 bitrate=N/A speed=3.61x    frame= 9063 fps= 87 q=-0.0 size=N/A time=00:06:18.00 bitrate=N/A speed=3.61x    frame= 9108 fps= 87 q=-0.0 size=N/A time=00:06:19.87 bitrate=N/A speed=3.61x    frame= 9151 fps= 87 q=-0.0 size=N/A time=00:06:21.67 bitrate=N/A speed=3.61x    frame= 9195 fps= 87 q=-0.0 size=N/A time=00:06:23.50 bitrate=N/A speed=3.61x    frame= 9240 fps= 87 q=-0.0 size=N/A time=00:06:25.38 bitrate=N/A speed=3.61x    frame= 9284 fps= 87 q=-0.0 size=N/A time=00:06:27.22 bitrate=N/A speed=3.61x    frame= 9330 fps= 87 q=-0.0 size=N/A time=00:06:29.13 bitrate=N/A speed=3.61x    frame= 9376 fps= 87 q=-0.0 size=N/A time=00:06:31.05 bitrate=N/A speed=3.61x    frame= 9419 fps= 87 q=-0.0 size=N/A time=00:06:32.85 bitrate=N/A speed=3.61x    frame= 9464 fps= 87 q=-0.0 size=N/A time=00:06:34.72 bitrate=N/A speed=3.61x    frame= 9507 fps= 87 q=-0.0 size=N/A time=00:06:36.52 bitrate=N/A speed=3.61x    frame= 9550 fps= 87 q=-0.0 size=N/A time=00:06:38.31 bitrate=N/A speed=3.61x    frame= 9594 fps= 87 q=-0.0 size=N/A time=00:06:40.14 bitrate=N/A speed=3.61x    frame= 9638 fps= 87 q=-0.0 size=N/A time=00:06:41.98 bitrate=N/A speed=3.61x    frame= 9683 fps= 87 q=-0.0 size=N/A time=00:06:43.86 bitrate=N/A speed=3.61x    frame= 9728 fps= 87 q=-0.0 size=N/A time=00:06:45.73 bitrate=N/A speed=3.61x    frame= 9772 fps= 87 q=-0.0 size=N/A time=00:06:47.57 bitrate=N/A speed=3.61x    frame= 9815 fps= 87 q=-0.0 size=N/A time=00:06:49.36 bitrate=N/A speed=3.61x    frame= 9862 fps= 87 q=-0.0 size=N/A time=00:06:51.32 bitrate=N/A speed=3.61x    frame= 9905 fps= 87 q=-0.0 size=N/A time=00:06:53.12 bitrate=N/A speed=3.61x    frame= 9951 fps= 87 q=-0.0 size=N/A time=00:06:55.03 bitrate=N/A speed=3.61x    frame= 9995 fps= 87 q=-0.0 size=N/A time=00:06:56.87 bitrate=N/A speed=3.61x    frame=10042 fps= 87 q=-0.0 size=N/A time=00:06:58.83 bitrate=N/A speed=3.61x    frame=10086 fps= 87 q=-0.0 size=N/A time=00:07:00.67 bitrate=N/A speed=3.61x    frame=10133 fps= 87 q=-0.0 size=N/A time=00:07:02.63 bitrate=N/A speed=3.61x    frame=10178 fps= 87 q=-0.0 size=N/A time=00:07:04.50 bitrate=N/A speed=3.61x    frame=10221 fps= 87 q=-0.0 size=N/A time=00:07:06.30 bitrate=N/A speed=3.61x    frame=10268 fps= 87 q=-0.0 size=N/A time=00:07:08.26 bitrate=N/A speed=3.61x    frame=10311 fps= 87 q=-0.0 size=N/A time=00:07:10.05 bitrate=N/A speed=3.61x    frame=10354 fps= 87 q=-0.0 size=N/A time=00:07:11.84 bitrate=N/A speed=3.61x    frame=10399 fps= 87 q=-0.0 size=N/A time=00:07:13.72 bitrate=N/A speed=3.61x    frame=10443 fps= 87 q=-0.0 size=N/A time=00:07:15.56 bitrate=N/A speed=3.61x    frame=10487 fps= 87 q=-0.0 size=N/A time=00:07:17.39 bitrate=N/A speed=3.61x    frame=10533 fps= 87 q=-0.0 size=N/A time=00:07:19.31 bitrate=N/A speed=3.61x    frame=10574 fps= 87 q=-0.0 size=N/A time=00:07:21.02 bitrate=N/A speed=3.61x    frame=10616 fps= 86 q=-0.0 size=N/A time=00:07:22.77 bitrate=N/A speed=3.61x    frame=10661 fps= 86 q=-0.0 size=N/A time=00:07:24.65 bitrate=N/A speed=3.61x    frame=10703 fps= 86 q=-0.0 size=N/A time=00:07:26.40 bitrate=N/A speed=3.61x    frame=10749 fps= 86 q=-0.0 size=N/A time=00:07:28.32 bitrate=N/A speed=3.61x    frame=10793 fps= 86 q=-0.0 size=N/A time=00:07:30.15 bitrate=N/A speed=3.61x    frame=10834 fps= 86 q=-0.0 size=N/A time=00:07:31.86 bitrate=N/A speed=3.61x    frame=10881 fps= 86 q=-0.0 size=N/A time=00:07:33.82 bitrate=N/A speed=3.61x    frame=10927 fps= 86 q=-0.0 size=N/A time=00:07:35.74 bitrate=N/A speed=3.61x    frame=10970 fps= 86 q=-0.0 size=N/A time=00:07:37.54 bitrate=N/A speed=3.61x    frame=11014 fps= 86 q=-0.0 size=N/A time=00:07:39.37 bitrate=N/A speed=3.61x    frame=11060 fps= 86 q=-0.0 size=N/A time=00:07:41.29 bitrate=N/A speed=3.61x    frame=11106 fps= 86 q=-0.0 size=N/A time=00:07:43.21 bitrate=N/A speed=3.61x    frame=11147 fps= 86 q=-0.0 size=N/A time=00:07:44.92 bitrate=N/A speed=3.61x    frame=11193 fps= 86 q=-0.0 size=N/A time=00:07:46.84 bitrate=N/A speed=3.61x    frame=11238 fps= 86 q=-0.0 size=N/A time=00:07:48.71 bitrate=N/A speed=3.61x    frame=11281 fps= 86 q=-0.0 size=N/A time=00:07:50.51 bitrate=N/A speed=3.61x    frame=11327 fps= 86 q=-0.0 size=N/A time=00:07:52.43 bitrate=N/A speed=3.61x    frame=11371 fps= 86 q=-0.0 size=N/A time=00:07:54.26 bitrate=N/A speed=3.61x    frame=11416 fps= 86 q=-0.0 size=N/A time=00:07:56.14 bitrate=N/A speed=3.61x    frame=11460 fps= 86 q=-0.0 size=N/A time=00:07:57.97 bitrate=N/A speed=3.61x    frame=11504 fps= 86 q=-0.0 size=N/A time=00:07:59.81 bitrate=N/A speed=3.61x    frame=11549 fps= 86 q=-0.0 size=N/A time=00:08:01.68 bitrate=N/A speed=3.61x    frame=11593 fps= 86 q=-0.0 size=N/A time=00:08:03.52 bitrate=N/A speed=3.61x    frame=11638 fps= 86 q=-0.0 size=N/A time=00:08:05.40 bitrate=N/A speed=3.61x    frame=11683 fps= 86 q=-0.0 size=N/A time=00:08:07.27 bitrate=N/A speed=3.61x    frame=11726 fps= 86 q=-0.0 size=N/A time=00:08:09.07 bitrate=N/A speed=3.61x    frame=11772 fps= 86 q=-0.0 size=N/A time=00:08:10.99 bitrate=N/A speed=3.61x    frame=11813 fps= 86 q=-0.0 size=N/A time=00:08:12.70 bitrate=N/A speed=3.61x    frame=11856 fps= 86 q=-0.0 size=N/A time=00:08:14.49 bitrate=N/A speed=3.61x    frame=11898 fps= 86 q=-0.0 size=N/A time=00:08:16.24 bitrate=N/A speed= 3.6x    frame=11942 fps= 86 q=-0.0 size=N/A time=00:08:18.08 bitrate=N/A speed= 3.6x    frame=11983 fps= 86 q=-0.0 size=N/A time=00:08:19.79 bitrate=N/A speed= 3.6x    frame=12027 fps= 86 q=-0.0 size=N/A time=00:08:21.62 bitrate=N/A speed= 3.6x    frame=12074 fps= 86 q=-0.0 size=N/A time=00:08:23.58 bitrate=N/A speed= 3.6x    frame=12118 fps= 86 q=-0.0 size=N/A time=00:08:25.42 bitrate=N/A speed= 3.6x    frame=12161 fps= 86 q=-0.0 size=N/A time=00:08:27.21 bitrate=N/A speed= 3.6x    frame=12203 fps= 86 q=-0.0 size=N/A time=00:08:28.96 bitrate=N/A speed= 3.6x    frame=12248 fps= 86 q=-0.0 size=N/A time=00:08:30.84 bitrate=N/A speed= 3.6x    frame=12293 fps= 86 q=-0.0 size=N/A time=00:08:32.72 bitrate=N/A speed= 3.6x    frame=12337 fps= 86 q=-0.0 size=N/A time=00:08:34.55 bitrate=N/A speed= 3.6x    frame=12381 fps= 86 q=-0.0 size=N/A time=00:08:36.39 bitrate=N/A speed= 3.6x    frame=12427 fps= 86 q=-0.0 size=N/A time=00:08:38.30 bitrate=N/A speed= 3.6x    frame=12469 fps= 86 q=-0.0 size=N/A time=00:08:40.06 bitrate=N/A speed= 3.6x    frame=12514 fps= 86 q=-0.0 size=N/A time=00:08:41.93 bitrate=N/A speed= 3.6x    frame=12559 fps= 86 q=-0.0 size=N/A time=00:08:43.81 bitrate=N/A speed= 3.6x    frame=12604 fps= 86 q=-0.0 size=N/A time=00:08:45.69 bitrate=N/A speed= 3.6x    frame=12651 fps= 86 q=-0.0 size=N/A time=00:08:47.65 bitrate=N/A speed= 3.6x    frame=12695 fps= 86 q=-0.0 size=N/A time=00:08:49.48 bitrate=N/A speed= 3.6x    frame=12740 fps= 86 q=-0.0 size=N/A time=00:08:51.36 bitrate=N/A speed= 3.6x    frame=12785 fps= 86 q=-0.0 size=N/A time=00:08:53.24 bitrate=N/A speed= 3.6x    frame=12830 fps= 86 q=-0.0 size=N/A time=00:08:55.11 bitrate=N/A speed= 3.6x    frame=12875 fps= 86 q=-0.0 size=N/A time=00:08:56.99 bitrate=N/A speed= 3.6x    frame=12919 fps= 86 q=-0.0 size=N/A time=00:08:58.82 bitrate=N/A speed= 3.6x    frame=12961 fps= 86 q=-0.0 size=N/A time=00:09:00.58 bitrate=N/A speed= 3.6x    frame=13004 fps= 86 q=-0.0 size=N/A time=00:09:02.37 bitrate=N/A speed= 3.6x    frame=13047 fps= 86 q=-0.0 size=N/A time=00:09:04.16 bitrate=N/A speed= 3.6x    frame=13091 fps= 86 q=-0.0 size=N/A time=00:09:06.00 bitrate=N/A speed= 3.6x    frame=13134 fps= 86 q=-0.0 size=N/A time=00:09:07.79 bitrate=N/A speed= 3.6x    frame=13176 fps= 86 q=-0.0 size=N/A time=00:09:09.54 bitrate=N/A speed= 3.6x    frame=13220 fps= 86 q=-0.0 size=N/A time=00:09:11.38 bitrate=N/A speed= 3.6x    frame=13263 fps= 86 q=-0.0 size=N/A time=00:09:13.17 bitrate=N/A speed= 3.6x    frame=13308 fps= 86 q=-0.0 size=N/A time=00:09:15.05 bitrate=N/A speed= 3.6x    frame=13352 fps= 86 q=-0.0 size=N/A time=00:09:16.88 bitrate=N/A speed= 3.6x    frame=13396 fps= 86 q=-0.0 size=N/A time=00:09:18.72 bitrate=N/A speed= 3.6x    frame=13442 fps= 86 q=-0.0 size=N/A time=00:09:20.64 bitrate=N/A speed= 3.6x    frame=13485 fps= 86 q=-0.0 size=N/A time=00:09:22.43 bitrate=N/A speed= 3.6x    frame=13529 fps= 86 q=-0.0 size=N/A time=00:09:24.27 bitrate=N/A speed= 3.6x    frame=13573 fps= 86 q=-0.0 size=N/A time=00:09:26.10 bitrate=N/A speed= 3.6x    frame=13617 fps= 86 q=-0.0 size=N/A time=00:09:27.94 bitrate=N/A speed= 3.6x    frame=13665 fps= 86 q=-0.0 size=N/A time=00:09:29.94 bitrate=N/A speed= 3.6x    frame=13709 fps= 86 q=-0.0 size=N/A time=00:09:31.77 bitrate=N/A speed= 3.6x    frame=13753 fps= 86 q=-0.0 size=N/A time=00:09:33.61 bitrate=N/A speed= 3.6x    frame=13797 fps= 86 q=-0.0 size=N/A time=00:09:35.44 bitrate=N/A speed= 3.6x    frame=13842 fps= 86 q=-0.0 size=N/A time=00:09:37.32 bitrate=N/A speed= 3.6x    frame=13887 fps= 86 q=-0.0 size=N/A time=00:09:39.20 bitrate=N/A speed= 3.6x    frame=13933 fps= 86 q=-0.0 size=N/A time=00:09:41.12 bitrate=N/A speed= 3.6x    frame=13977 fps= 86 q=-0.0 size=N/A time=00:09:42.95 bitrate=N/A speed= 3.6x    frame=14023 fps= 86 q=-0.0 size=N/A time=00:09:44.87 bitrate=N/A speed= 3.6x    frame=14068 fps= 86 q=-0.0 size=N/A time=00:09:46.75 bitrate=N/A speed= 3.6x    frame=14112 fps= 86 q=-0.0 size=N/A time=00:09:48.58 bitrate=N/A speed= 3.6x    frame=14159 fps= 86 q=-0.0 size=N/A time=00:09:50.54 bitrate=N/A speed= 3.6x    frame=14202 fps= 86 q=-0.0 size=N/A time=00:09:52.34 bitrate=N/A speed= 3.6x    frame=14248 fps= 86 q=-0.0 size=N/A time=00:09:54.26 bitrate=N/A speed= 3.6x    frame=14292 fps= 86 q=-0.0 size=N/A time=00:09:56.09 bitrate=N/A speed= 3.6x    frame=14337 fps= 86 q=-0.0 size=N/A time=00:09:57.97 bitrate=N/A speed= 3.6x    frame=14379 fps= 86 q=-0.0 size=N/A time=00:09:59.72 bitrate=N/A speed= 3.6x    frame=14423 fps= 86 q=-0.0 size=N/A time=00:10:01.55 bitrate=N/A speed= 3.6x    frame=14467 fps= 86 q=-0.0 size=N/A time=00:10:03.39 bitrate=N/A speed= 3.6x    frame=14511 fps= 86 q=-0.0 size=N/A time=00:10:05.22 bitrate=N/A speed= 3.6x    frame=14553 fps= 86 q=-0.0 size=N/A time=00:10:06.98 bitrate=N/A speed= 3.6x    frame=14599 fps= 86 q=-0.0 size=N/A time=00:10:08.89 bitrate=N/A speed= 3.6x    frame=14643 fps= 86 q=-0.0 size=N/A time=00:10:10.73 bitrate=N/A speed= 3.6x    frame=14688 fps= 86 q=-0.0 size=N/A time=00:10:12.61 bitrate=N/A speed= 3.6x    frame=14730 fps= 86 q=-0.0 size=N/A time=00:10:14.36 bitrate=N/A speed= 3.6x    frame=14774 fps= 86 q=-0.0 size=N/A time=00:10:16.19 bitrate=N/A speed= 3.6x    frame=14820 fps= 86 q=-0.0 size=N/A time=00:10:18.11 bitrate=N/A speed= 3.6x    frame=14862 fps= 86 q=-0.0 size=N/A time=00:10:19.86 bitrate=N/A speed= 3.6x    frame=14907 fps= 86 q=-0.0 size=N/A time=00:10:21.74 bitrate=N/A speed= 3.6x    frame=14950 fps= 86 q=-0.0 size=N/A time=00:10:23.53 bitrate=N/A speed= 3.6x    frame=14993 fps= 86 q=-0.0 size=N/A time=00:10:25.33 bitrate=N/A speed= 3.6x    frame=15035 fps= 86 q=-0.0 size=N/A time=00:10:27.08 bitrate=N/A speed= 3.6x    frame=15077 fps= 86 q=-0.0 size=N/A time=00:10:28.83 bitrate=N/A speed= 3.6x    frame=15124 fps= 86 q=-0.0 size=N/A time=00:10:30.79 bitrate=N/A speed= 3.6x    frame=15167 fps= 86 q=-0.0 size=N/A time=00:10:32.59 bitrate=N/A speed= 3.6x    frame=15212 fps= 86 q=-0.0 size=N/A time=00:10:34.46 bitrate=N/A speed= 3.6x    frame=15257 fps= 86 q=-0.0 size=N/A time=00:10:36.34 bitrate=N/A speed= 3.6x    frame=15302 fps= 86 q=-0.0 size=N/A time=00:10:38.22 bitrate=N/A speed= 3.6x    frame=15346 fps= 86 q=-0.0 size=N/A time=00:10:40.05 bitrate=N/A speed= 3.6x    frame=15393 fps= 86 q=-0.0 size=N/A time=00:10:42.01 bitrate=N/A speed= 3.6x    frame=15438 fps= 86 q=-0.0 size=N/A time=00:10:43.89 bitrate=N/A speed= 3.6x    frame=15484 fps= 86 q=-0.0 size=N/A time=00:10:45.81 bitrate=N/A speed= 3.6x    frame=15529 fps= 86 q=-0.0 size=N/A time=00:10:47.68 bitrate=N/A speed= 3.6x    frame=15574 fps= 86 q=-0.0 size=N/A time=00:10:49.56 bitrate=N/A speed= 3.6x    frame=15619 fps= 86 q=-0.0 size=N/A time=00:10:51.44 bitrate=N/A speed= 3.6x    frame=15663 fps= 86 q=-0.0 size=N/A time=00:10:53.27 bitrate=N/A speed= 3.6x    frame=15705 fps= 86 q=-0.0 size=N/A time=00:10:55.02 bitrate=N/A speed= 3.6x    frame=15752 fps= 86 q=-0.0 size=N/A time=00:10:56.98 bitrate=N/A speed= 3.6x    frame=15797 fps= 86 q=-0.0 size=N/A time=00:10:58.86 bitrate=N/A speed= 3.6x    frame=15843 fps= 86 q=-0.0 size=N/A time=00:11:00.78 bitrate=N/A speed= 3.6x    frame=15887 fps= 86 q=-0.0 size=N/A time=00:11:02.62 bitrate=N/A speed= 3.6x    frame=15931 fps= 86 q=-0.0 size=N/A time=00:11:04.45 bitrate=N/A speed= 3.6x    frame=15976 fps= 86 q=-0.0 size=N/A time=00:11:06.33 bitrate=N/A speed= 3.6x    frame=16023 fps= 86 q=-0.0 size=N/A time=00:11:08.29 bitrate=N/A speed= 3.6x    frame=16067 fps= 86 q=-0.0 size=N/A time=00:11:10.12 bitrate=N/A speed= 3.6x    frame=16112 fps= 86 q=-0.0 size=N/A time=00:11:12.00 bitrate=N/A speed= 3.6x    frame=16154 fps= 86 q=-0.0 size=N/A time=00:11:13.75 bitrate=N/A speed= 3.6x    frame=16200 fps= 86 q=-0.0 size=N/A time=00:11:15.67 bitrate=N/A speed= 3.6x    frame=16244 fps= 86 q=-0.0 size=N/A time=00:11:17.51 bitrate=N/A speed= 3.6x    frame=16290 fps= 86 q=-0.0 size=N/A time=00:11:19.42 bitrate=N/A speed= 3.6x    frame=16336 fps= 86 q=-0.0 size=N/A time=00:11:21.34 bitrate=N/A speed= 3.6x    frame=16383 fps= 86 q=-0.0 size=N/A time=00:11:23.30 bitrate=N/A speed= 3.6x    frame=16428 fps= 86 q=-0.0 size=N/A time=00:11:25.18 bitrate=N/A speed= 3.6x    frame=16475 fps= 86 q=-0.0 size=N/A time=00:11:27.14 bitrate=N/A speed= 3.6x    frame=16518 fps= 86 q=-0.0 size=N/A time=00:11:28.93 bitrate=N/A speed= 3.6x    frame=16563 fps= 86 q=-0.0 size=N/A time=00:11:30.81 bitrate=N/A speed= 3.6x    frame=16608 fps= 86 q=-0.0 size=N/A time=00:11:32.69 bitrate=N/A speed= 3.6x    frame=16654 fps= 86 q=-0.0 size=N/A time=00:11:34.61 bitrate=N/A speed= 3.6x    frame=16697 fps= 86 q=-0.0 size=N/A time=00:11:36.40 bitrate=N/A speed= 3.6x    frame=16742 fps= 86 q=-0.0 size=N/A time=00:11:38.28 bitrate=N/A speed= 3.6x    frame=16788 fps= 86 q=-0.0 size=N/A time=00:11:40.19 bitrate=N/A speed= 3.6x    frame=16829 fps= 86 q=-0.0 size=N/A time=00:11:41.90 bitrate=N/A speed= 3.6x    frame=16876 fps= 86 q=-0.0 size=N/A time=00:11:43.86 bitrate=N/A speed= 3.6x    frame=16921 fps= 86 q=-0.0 size=N/A time=00:11:45.74 bitrate=N/A speed= 3.6x    frame=16965 fps= 86 q=-0.0 size=N/A time=00:11:47.58 bitrate=N/A speed= 3.6x    frame=17008 fps= 86 q=-0.0 size=N/A time=00:11:49.37 bitrate=N/A speed= 3.6x    frame=17054 fps= 86 q=-0.0 size=N/A time=00:11:51.29 bitrate=N/A speed= 3.6x    frame=17099 fps= 86 q=-0.0 size=N/A time=00:11:53.17 bitrate=N/A speed= 3.6x    frame=17142 fps= 86 q=-0.0 size=N/A time=00:11:54.96 bitrate=N/A speed= 3.6x    frame=17189 fps= 86 q=-0.0 size=N/A time=00:11:56.92 bitrate=N/A speed= 3.6x    frame=17232 fps= 86 q=-0.0 size=N/A time=00:11:58.71 bitrate=N/A speed= 3.6x    frame=17280 fps= 86 q=-0.0 size=N/A time=00:12:00.72 bitrate=N/A speed= 3.6x    frame=17325 fps= 86 q=-0.0 size=N/A time=00:12:02.59 bitrate=N/A speed= 3.6x    frame=17369 fps= 86 q=-0.0 size=N/A time=00:12:04.43 bitrate=N/A speed= 3.6x    frame=17414 fps= 86 q=-0.0 size=N/A time=00:12:06.30 bitrate=N/A speed= 3.6x    frame=17461 fps= 86 q=-0.0 size=N/A time=00:12:08.26 bitrate=N/A speed= 3.6x    frame=17507 fps= 86 q=-0.0 size=N/A time=00:12:10.18 bitrate=N/A speed= 3.6x    frame=17552 fps= 86 q=-0.0 size=N/A time=00:12:12.06 bitrate=N/A speed= 3.6x    frame=17599 fps= 86 q=-0.0 size=N/A time=00:12:14.02 bitrate=N/A speed= 3.6x    frame=17644 fps= 86 q=-0.0 size=N/A time=00:12:15.90 bitrate=N/A speed= 3.6x    frame=17690 fps= 86 q=-0.0 size=N/A time=00:12:17.82 bitrate=N/A speed= 3.6x    frame=17737 fps= 86 q=-0.0 size=N/A time=00:12:19.78 bitrate=N/A speed= 3.6x    frame=17781 fps= 86 q=-0.0 size=N/A time=00:12:21.61 bitrate=N/A speed= 3.6x    frame=17825 fps= 86 q=-0.0 size=N/A time=00:12:23.45 bitrate=N/A speed= 3.6x    frame=17870 fps= 86 q=-0.0 size=N/A time=00:12:25.32 bitrate=N/A speed= 3.6x    frame=17914 fps= 86 q=-0.0 size=N/A time=00:12:27.16 bitrate=N/A speed= 3.6x    frame=17961 fps= 86 q=-0.0 size=N/A time=00:12:29.12 bitrate=N/A speed= 3.6x    frame=18006 fps= 86 q=-0.0 size=N/A time=00:12:31.00 bitrate=N/A speed= 3.6x    frame=18052 fps= 86 q=-0.0 size=N/A time=00:12:32.91 bitrate=N/A speed= 3.6x    frame=18098 fps= 86 q=-0.0 size=N/A time=00:12:34.83 bitrate=N/A speed= 3.6x    frame=18144 fps= 86 q=-0.0 size=N/A time=00:12:36.75 bitrate=N/A speed= 3.6x    frame=18188 fps= 86 q=-0.0 size=N/A time=00:12:38.59 bitrate=N/A speed= 3.6x    frame=18233 fps= 86 q=-0.0 size=N/A time=00:12:40.46 bitrate=N/A speed= 3.6x    frame=18279 fps= 86 q=-0.0 size=N/A time=00:12:42.38 bitrate=N/A speed=3.61x    frame=18323 fps= 86 q=-0.0 size=N/A time=00:12:44.22 bitrate=N/A speed=3.61x    frame=18370 fps= 86 q=-0.0 size=N/A time=00:12:46.18 bitrate=N/A speed=3.61x    frame=18413 fps= 86 q=-0.0 size=N/A time=00:12:47.97 bitrate=N/A speed=3.61x    frame=18457 fps= 86 q=-0.0 size=N/A time=00:12:49.81 bitrate=N/A speed=3.61x    frame=18502 fps= 86 q=-0.0 size=N/A time=00:12:51.68 bitrate=N/A speed=3.61x    frame=18547 fps= 86 q=-0.0 size=N/A time=00:12:53.56 bitrate=N/A speed=3.61x    frame=18590 fps= 86 q=-0.0 size=N/A time=00:12:55.35 bitrate=N/A speed= 3.6x    frame=18635 fps= 86 q=-0.0 size=N/A time=00:12:57.23 bitrate=N/A speed= 3.6x    frame=18679 fps= 86 q=-0.0 size=N/A time=00:12:59.06 bitrate=N/A speed= 3.6x    frame=18724 fps= 86 q=-0.0 size=N/A time=00:13:00.94 bitrate=N/A speed= 3.6x    frame=18768 fps= 86 q=-0.0 size=N/A time=00:13:02.78 bitrate=N/A speed= 3.6x    frame=18815 fps= 86 q=-0.0 size=N/A time=00:13:04.74 bitrate=N/A speed=3.61x    frame=18858 fps= 86 q=-0.0 size=N/A time=00:13:06.53 bitrate=N/A speed= 3.6x    frame=18903 fps= 86 q=-0.0 size=N/A time=00:13:08.41 bitrate=N/A speed= 3.6x    frame=18947 fps= 86 q=-0.0 size=N/A time=00:13:10.24 bitrate=N/A speed= 3.6x    frame=18992 fps= 86 q=-0.0 size=N/A time=00:13:12.12 bitrate=N/A speed= 3.6x    frame=19036 fps= 86 q=-0.0 size=N/A time=00:13:13.95 bitrate=N/A speed= 3.6x    frame=19081 fps= 86 q=-0.0 size=N/A time=00:13:15.83 bitrate=N/A speed= 3.6x    frame=19125 fps= 86 q=-0.0 size=N/A time=00:13:17.67 bitrate=N/A speed= 3.6x    frame=19168 fps= 86 q=-0.0 size=N/A time=00:13:19.46 bitrate=N/A speed= 3.6x    frame=19211 fps= 86 q=-0.0 size=N/A time=00:13:21.25 bitrate=N/A speed= 3.6x    frame=19254 fps= 86 q=-0.0 size=N/A time=00:13:23.05 bitrate=N/A speed= 3.6x    frame=19298 fps= 86 q=-0.0 size=N/A time=00:13:24.88 bitrate=N/A speed= 3.6x    frame=19342 fps= 86 q=-0.0 size=N/A time=00:13:26.72 bitrate=N/A speed= 3.6x    frame=19387 fps= 86 q=-0.0 size=N/A time=00:13:28.59 bitrate=N/A speed= 3.6x    frame=19432 fps= 86 q=-0.0 size=N/A time=00:13:30.47 bitrate=N/A speed= 3.6x    frame=19475 fps= 86 q=-0.0 size=N/A time=00:13:32.26 bitrate=N/A speed= 3.6x    frame=19520 fps= 86 q=-0.0 size=N/A time=00:13:34.14 bitrate=N/A speed= 3.6x    frame=19563 fps= 86 q=-0.0 size=N/A time=00:13:35.94 bitrate=N/A speed= 3.6x    frame=19610 fps= 86 q=-0.0 size=N/A time=00:13:37.90 bitrate=N/A speed= 3.6x    frame=19654 fps= 86 q=-0.0 size=N/A time=00:13:39.73 bitrate=N/A speed= 3.6x    frame=19697 fps= 86 q=-0.0 size=N/A time=00:13:41.52 bitrate=N/A speed= 3.6x    frame=19744 fps= 86 q=-0.0 size=N/A time=00:13:43.48 bitrate=N/A speed= 3.6x    frame=19787 fps= 86 q=-0.0 size=N/A time=00:13:45.28 bitrate=N/A speed= 3.6x    frame=19829 fps= 86 q=-0.0 size=N/A time=00:13:47.03 bitrate=N/A speed= 3.6x    frame=19872 fps= 86 q=-0.0 size=N/A time=00:13:48.82 bitrate=N/A speed= 3.6x    frame=19916 fps= 86 q=-0.0 size=N/A time=00:13:50.66 bitrate=N/A speed= 3.6x    frame=19960 fps= 86 q=-0.0 size=N/A time=00:13:52.49 bitrate=N/A speed= 3.6x    frame=20005 fps= 86 q=-0.0 size=N/A time=00:13:54.37 bitrate=N/A speed= 3.6x    frame=20052 fps= 86 q=-0.0 size=N/A time=00:13:56.33 bitrate=N/A speed= 3.6x    frame=20097 fps= 86 q=-0.0 size=N/A time=00:13:58.21 bitrate=N/A speed= 3.6x    frame=20144 fps= 86 q=-0.0 size=N/A time=00:14:00.17 bitrate=N/A speed= 3.6x    frame=20189 fps= 86 q=-0.0 size=N/A time=00:14:02.04 bitrate=N/A speed= 3.6x    frame=20233 fps= 86 q=-0.0 size=N/A time=00:14:03.88 bitrate=N/A speed= 3.6x    frame=20279 fps= 86 q=-0.0 size=N/A time=00:14:05.80 bitrate=N/A speed= 3.6x    frame=20323 fps= 86 q=-0.0 size=N/A time=00:14:07.63 bitrate=N/A speed= 3.6x    frame=20367 fps= 86 q=-0.0 size=N/A time=00:14:09.47 bitrate=N/A speed= 3.6x    frame=20414 fps= 86 q=-0.0 size=N/A time=00:14:11.43 bitrate=N/A speed= 3.6x    frame=20458 fps= 86 q=-0.0 size=N/A time=00:14:13.26 bitrate=N/A speed= 3.6x    frame=20502 fps= 86 q=-0.0 size=N/A time=00:14:15.10 bitrate=N/A speed= 3.6x    frame=20547 fps= 86 q=-0.0 size=N/A time=00:14:16.98 bitrate=N/A speed= 3.6x    frame=20592 fps= 86 q=-0.0 size=N/A time=00:14:18.85 bitrate=N/A speed= 3.6x    frame=20635 fps= 86 q=-0.0 size=N/A time=00:14:20.65 bitrate=N/A speed= 3.6x    frame=20682 fps= 86 q=-0.0 size=N/A time=00:14:22.61 bitrate=N/A speed= 3.6x    frame=20726 fps= 86 q=-0.0 size=N/A time=00:14:24.44 bitrate=N/A speed= 3.6x    frame=20771 fps= 86 q=-0.0 size=N/A time=00:14:26.32 bitrate=N/A speed= 3.6x    frame=20814 fps= 86 q=-0.0 size=N/A time=00:14:28.11 bitrate=N/A speed= 3.6x    frame=20857 fps= 86 q=-0.0 size=N/A time=00:14:29.91 bitrate=N/A speed= 3.6x    frame=20904 fps= 86 q=-0.0 size=N/A time=00:14:31.87 bitrate=N/A speed= 3.6x    frame=20949 fps= 86 q=-0.0 size=N/A time=00:14:33.74 bitrate=N/A speed= 3.6x    frame=20994 fps= 86 q=-0.0 size=N/A time=00:14:35.62 bitrate=N/A speed= 3.6x    frame=21042 fps= 86 q=-0.0 size=N/A time=00:14:37.62 bitrate=N/A speed= 3.6x    frame=21086 fps= 86 q=-0.0 size=N/A time=00:14:39.46 bitrate=N/A speed= 3.6x    frame=21129 fps= 86 q=-0.0 size=N/A time=00:14:41.25 bitrate=N/A speed= 3.6x    frame=21172 fps= 86 q=-0.0 size=N/A time=00:14:43.04 bitrate=N/A speed= 3.6x    frame=21214 fps= 86 q=-0.0 size=N/A time=00:14:44.80 bitrate=N/A speed= 3.6x    frame=21259 fps= 86 q=-0.0 size=N/A time=00:14:46.67 bitrate=N/A speed= 3.6x    frame=21302 fps= 86 q=-0.0 size=N/A time=00:14:48.47 bitrate=N/A speed= 3.6x    frame=21347 fps= 86 q=-0.0 size=N/A time=00:14:50.34 bitrate=N/A speed= 3.6x    frame=21391 fps= 86 q=-0.0 size=N/A time=00:14:52.18 bitrate=N/A speed= 3.6x    frame=21438 fps= 86 q=-0.0 size=N/A time=00:14:54.14 bitrate=N/A speed= 3.6x    frame=21481 fps= 86 q=-0.0 size=N/A time=00:14:55.93 bitrate=N/A speed= 3.6x    frame=21527 fps= 86 q=-0.0 size=N/A time=00:14:57.85 bitrate=N/A speed= 3.6x    frame=21574 fps= 86 q=-0.0 size=N/A time=00:14:59.81 bitrate=N/A speed= 3.6x    frame=21619 fps= 86 q=-0.0 size=N/A time=00:15:01.69 bitrate=N/A speed= 3.6x    frame=21664 fps= 86 q=-0.0 size=N/A time=00:15:03.56 bitrate=N/A speed= 3.6x    frame=21707 fps= 86 q=-0.0 size=N/A time=00:15:05.36 bitrate=N/A speed= 3.6x    frame=21751 fps= 86 q=-0.0 size=N/A time=00:15:07.19 bitrate=N/A speed= 3.6x    frame=21794 fps= 86 q=-0.0 size=N/A time=00:15:08.99 bitrate=N/A speed= 3.6x    frame=21838 fps= 86 q=-0.0 size=N/A time=00:15:10.82 bitrate=N/A speed= 3.6x    frame=21880 fps= 86 q=-0.0 size=N/A time=00:15:12.57 bitrate=N/A speed= 3.6x    frame=21926 fps= 86 q=-0.0 size=N/A time=00:15:14.49 bitrate=N/A speed= 3.6x    frame=21972 fps= 86 q=-0.0 size=N/A time=00:15:16.41 bitrate=N/A speed= 3.6x    frame=22016 fps= 86 q=-0.0 size=N/A time=00:15:18.25 bitrate=N/A speed= 3.6x    frame=22059 fps= 86 q=-0.0 size=N/A time=00:15:20.04 bitrate=N/A speed= 3.6x    frame=22105 fps= 86 q=-0.0 size=N/A time=00:15:21.96 bitrate=N/A speed= 3.6x    frame=22148 fps= 86 q=-0.0 size=N/A time=00:15:23.75 bitrate=N/A speed= 3.6x    frame=22192 fps= 86 q=-0.0 size=N/A time=00:15:25.59 bitrate=N/A speed= 3.6x    frame=22237 fps= 86 q=-0.0 size=N/A time=00:15:27.46 bitrate=N/A speed= 3.6x    frame=22283 fps= 86 q=-0.0 size=N/A time=00:15:29.38 bitrate=N/A speed= 3.6x    frame=22325 fps= 86 q=-0.0 size=N/A time=00:15:31.13 bitrate=N/A speed= 3.6x    frame=22370 fps= 86 q=-0.0 size=N/A time=00:15:33.01 bitrate=N/A speed= 3.6x    frame=22414 fps= 86 q=-0.0 size=N/A time=00:15:34.85 bitrate=N/A speed= 3.6x    frame=22460 fps= 86 q=-0.0 size=N/A time=00:15:36.76 bitrate=N/A speed= 3.6x    frame=22504 fps= 86 q=-0.0 size=N/A time=00:15:38.60 bitrate=N/A speed= 3.6x    frame=22546 fps= 86 q=-0.0 size=N/A time=00:15:40.35 bitrate=N/A speed= 3.6x    frame=22593 fps= 86 q=-0.0 size=N/A time=00:15:42.31 bitrate=N/A speed= 3.6x    frame=22634 fps= 86 q=-0.0 size=N/A time=00:15:44.02 bitrate=N/A speed= 3.6x    frame=22678 fps= 86 q=-0.0 size=N/A time=00:15:45.86 bitrate=N/A speed= 3.6x    frame=22723 fps= 86 q=-0.0 size=N/A time=00:15:47.73 bitrate=N/A speed= 3.6x    frame=22770 fps= 86 q=-0.0 size=N/A time=00:15:49.69 bitrate=N/A speed= 3.6x    frame=22816 fps= 86 q=-0.0 size=N/A time=00:15:51.61 bitrate=N/A speed= 3.6x    frame=22863 fps= 86 q=-0.0 size=N/A time=00:15:53.57 bitrate=N/A speed= 3.6x    frame=22909 fps= 86 q=-0.0 size=N/A time=00:15:55.49 bitrate=N/A speed= 3.6x    frame=22953 fps= 86 q=-0.0 size=N/A time=00:15:57.33 bitrate=N/A speed= 3.6x    frame=22996 fps= 86 q=-0.0 size=N/A time=00:15:59.12 bitrate=N/A speed= 3.6x    frame=23040 fps= 86 q=-0.0 size=N/A time=00:16:00.96 bitrate=N/A speed= 3.6x    frame=23086 fps= 86 q=-0.0 size=N/A time=00:16:02.87 bitrate=N/A speed= 3.6x    frame=23129 fps= 86 q=-0.0 size=N/A time=00:16:04.67 bitrate=N/A speed= 3.6x    frame=23175 fps= 86 q=-0.0 size=N/A time=00:16:06.59 bitrate=N/A speed= 3.6x    frame=23221 fps= 86 q=-0.0 size=N/A time=00:16:08.50 bitrate=N/A speed= 3.6x    frame=23263 fps= 86 q=-0.0 size=N/A time=00:16:10.26 bitrate=N/A speed= 3.6x    frame=23306 fps= 86 q=-0.0 size=N/A time=00:16:12.05 bitrate=N/A speed= 3.6x    frame=23351 fps= 86 q=-0.0 size=N/A time=00:16:13.93 bitrate=N/A speed= 3.6x    frame=23393 fps= 86 q=-0.0 size=N/A time=00:16:15.68 bitrate=N/A speed= 3.6x    frame=23436 fps= 86 q=-0.0 size=N/A time=00:16:17.47 bitrate=N/A speed= 3.6x    frame=23483 fps= 86 q=-0.0 size=N/A time=00:16:19.43 bitrate=N/A speed= 3.6x    frame=23526 fps= 86 q=-0.0 size=N/A time=00:16:21.23 bitrate=N/A speed= 3.6x    frame=23571 fps= 86 q=-0.0 size=N/A time=00:16:23.10 bitrate=N/A speed= 3.6x    frame=23615 fps= 86 q=-0.0 size=N/A time=00:16:24.94 bitrate=N/A speed= 3.6x    frame=23659 fps= 86 q=-0.0 size=N/A time=00:16:26.77 bitrate=N/A speed= 3.6x    frame=23702 fps= 86 q=-0.0 size=N/A time=00:16:28.57 bitrate=N/A speed= 3.6x    frame=23744 fps= 86 q=-0.0 size=N/A time=00:16:30.32 bitrate=N/A speed= 3.6x    frame=23789 fps= 86 q=-0.0 size=N/A time=00:16:32.19 bitrate=N/A speed= 3.6x    frame=23834 fps= 86 q=-0.0 size=N/A time=00:16:34.07 bitrate=N/A speed= 3.6x    frame=23879 fps= 86 q=-0.0 size=N/A time=00:16:35.95 bitrate=N/A speed= 3.6x    frame=23926 fps= 86 q=-0.0 size=N/A time=00:16:37.91 bitrate=N/A speed= 3.6x    frame=23969 fps= 86 q=-0.0 size=N/A time=00:16:39.70 bitrate=N/A speed= 3.6x    frame=24013 fps= 86 q=-0.0 size=N/A time=00:16:41.54 bitrate=N/A speed= 3.6x    frame=24059 fps= 86 q=-0.0 size=N/A time=00:16:43.46 bitrate=N/A speed= 3.6x    frame=24102 fps= 86 q=-0.0 size=N/A time=00:16:45.25 bitrate=N/A speed= 3.6x    frame=24147 fps= 86 q=-0.0 size=N/A time=00:16:47.13 bitrate=N/A speed= 3.6x    frame=24192 fps= 86 q=-0.0 size=N/A time=00:16:49.00 bitrate=N/A speed= 3.6x    frame=24237 fps= 86 q=-0.0 size=N/A time=00:16:50.88 bitrate=N/A speed= 3.6x    frame=24281 fps= 86 q=-0.0 size=N/A time=00:16:52.72 bitrate=N/A speed= 3.6x    frame=24325 fps= 86 q=-0.0 size=N/A time=00:16:54.55 bitrate=N/A speed= 3.6x    frame=24371 fps= 86 q=-0.0 size=N/A time=00:16:56.47 bitrate=N/A speed= 3.6x    frame=24415 fps= 86 q=-0.0 size=N/A time=00:16:58.30 bitrate=N/A speed= 3.6x    frame=24460 fps= 86 q=-0.0 size=N/A time=00:17:00.18 bitrate=N/A speed= 3.6x    frame=24503 fps= 86 q=-0.0 size=N/A time=00:17:01.97 bitrate=N/A speed= 3.6x    frame=24549 fps= 86 q=-0.0 size=N/A time=00:17:03.89 bitrate=N/A speed= 3.6x    frame=24594 fps= 86 q=-0.0 size=N/A time=00:17:05.77 bitrate=N/A speed= 3.6x    frame=24639 fps= 86 q=-0.0 size=N/A time=00:17:07.65 bitrate=N/A speed= 3.6x    frame=24685 fps= 86 q=-0.0 size=N/A time=00:17:09.57 bitrate=N/A speed= 3.6x    frame=24731 fps= 86 q=-0.0 size=N/A time=00:17:11.48 bitrate=N/A speed= 3.6x    frame=24773 fps= 86 q=-0.0 size=N/A time=00:17:13.24 bitrate=N/A speed= 3.6x    frame=24819 fps= 86 q=-0.0 size=N/A time=00:17:15.15 bitrate=N/A speed= 3.6x    frame=24866 fps= 86 q=-0.0 size=N/A time=00:17:17.11 bitrate=N/A speed= 3.6x    frame=24909 fps= 86 q=-0.0 size=N/A time=00:17:18.91 bitrate=N/A speed= 3.6x    frame=24952 fps= 86 q=-0.0 size=N/A time=00:17:20.70 bitrate=N/A speed= 3.6x    frame=24998 fps= 86 q=-0.0 size=N/A time=00:17:22.62 bitrate=N/A speed= 3.6x    frame=25042 fps= 86 q=-0.0 size=N/A time=00:17:24.46 bitrate=N/A speed= 3.6x    frame=25086 fps= 86 q=-0.0 size=N/A time=00:17:26.29 bitrate=N/A speed= 3.6x    frame=25130 fps= 86 q=-0.0 size=N/A time=00:17:28.13 bitrate=N/A speed= 3.6x    frame=25174 fps= 86 q=-0.0 size=N/A time=00:17:29.96 bitrate=N/A speed= 3.6x    frame=25219 fps= 86 q=-0.0 size=N/A time=00:17:31.84 bitrate=N/A speed= 3.6x    frame=25264 fps= 86 q=-0.0 size=N/A time=00:17:33.71 bitrate=N/A speed= 3.6x    frame=25308 fps= 86 q=-0.0 size=N/A time=00:17:35.55 bitrate=N/A speed= 3.6x    frame=25354 fps= 86 q=-0.0 size=N/A time=00:17:37.47 bitrate=N/A speed= 3.6x    frame=25398 fps= 86 q=-0.0 size=N/A time=00:17:39.30 bitrate=N/A speed= 3.6x    frame=25443 fps= 86 q=-0.0 size=N/A time=00:17:41.18 bitrate=N/A speed= 3.6x    frame=25485 fps= 86 q=-0.0 size=N/A time=00:17:42.93 bitrate=N/A speed= 3.6x    frame=25531 fps= 86 q=-0.0 size=N/A time=00:17:44.85 bitrate=N/A speed= 3.6x    frame=25576 fps= 86 q=-0.0 size=N/A time=00:17:46.73 bitrate=N/A speed= 3.6x    frame=25621 fps= 86 q=-0.0 size=N/A time=00:17:48.60 bitrate=N/A speed= 3.6x    frame=25663 fps= 86 q=-0.0 size=N/A time=00:17:50.36 bitrate=N/A speed= 3.6x    frame=25708 fps= 86 q=-0.0 size=N/A time=00:17:52.23 bitrate=N/A speed= 3.6x    frame=25752 fps= 86 q=-0.0 size=N/A time=00:17:54.07 bitrate=N/A speed= 3.6x    frame=25796 fps= 86 q=-0.0 size=N/A time=00:17:55.90 bitrate=N/A speed= 3.6x    frame=25840 fps= 86 q=-0.0 size=N/A time=00:17:57.74 bitrate=N/A speed= 3.6x    frame=25884 fps= 86 q=-0.0 size=N/A time=00:17:59.57 bitrate=N/A speed= 3.6x    frame=25929 fps= 86 q=-0.0 size=N/A time=00:18:01.45 bitrate=N/A speed= 3.6x    frame=25973 fps= 86 q=-0.0 size=N/A time=00:18:03.29 bitrate=N/A speed= 3.6x    frame=26015 fps= 86 q=-0.0 size=N/A time=00:18:05.04 bitrate=N/A speed= 3.6x    frame=26060 fps= 86 q=-0.0 size=N/A time=00:18:06.91 bitrate=N/A speed= 3.6x    frame=26103 fps= 86 q=-0.0 size=N/A time=00:18:08.71 bitrate=N/A speed= 3.6x    frame=26147 fps= 86 q=-0.0 size=N/A time=00:18:10.54 bitrate=N/A speed= 3.6x    frame=26190 fps= 86 q=-0.0 size=N/A time=00:18:12.34 bitrate=N/A speed= 3.6x    frame=26234 fps= 86 q=-0.0 size=N/A time=00:18:14.17 bitrate=N/A speed= 3.6x    frame=26279 fps= 86 q=-0.0 size=N/A time=00:18:16.05 bitrate=N/A speed= 3.6x    frame=26324 fps= 86 q=-0.0 size=N/A time=00:18:17.93 bitrate=N/A speed= 3.6x    frame=26367 fps= 86 q=-0.0 size=N/A time=00:18:19.72 bitrate=N/A speed= 3.6x    frame=26413 fps= 86 q=-0.0 size=N/A time=00:18:21.64 bitrate=N/A speed= 3.6x    frame=26457 fps= 86 q=-0.0 size=N/A time=00:18:23.47 bitrate=N/A speed= 3.6x    frame=26500 fps= 86 q=-0.0 size=N/A time=00:18:25.27 bitrate=N/A speed= 3.6x    frame=26548 fps= 86 q=-0.0 size=N/A time=00:18:27.27 bitrate=N/A speed= 3.6x    frame=26589 fps= 86 q=-0.0 size=N/A time=00:18:28.98 bitrate=N/A speed= 3.6x    frame=26634 fps= 86 q=-0.0 size=N/A time=00:18:30.85 bitrate=N/A speed= 3.6x    frame=26676 fps= 86 q=-0.0 size=N/A time=00:18:32.61 bitrate=N/A speed= 3.6x    frame=26718 fps= 86 q=-0.0 size=N/A time=00:18:34.36 bitrate=N/A speed= 3.6x    frame=26762 fps= 86 q=-0.0 size=N/A time=00:18:36.19 bitrate=N/A speed= 3.6x    frame=26807 fps= 86 q=-0.0 size=N/A time=00:18:38.07 bitrate=N/A speed= 3.6x    frame=26852 fps= 86 q=-0.0 size=N/A time=00:18:39.95 bitrate=N/A speed= 3.6x    frame=26895 fps= 86 q=-0.0 size=N/A time=00:18:41.74 bitrate=N/A speed= 3.6x    frame=26939 fps= 86 q=-0.0 size=N/A time=00:18:43.58 bitrate=N/A speed= 3.6x    frame=26983 fps= 86 q=-0.0 size=N/A time=00:18:45.41 bitrate=N/A speed= 3.6x    frame=27026 fps= 86 q=-0.0 size=N/A time=00:18:47.20 bitrate=N/A speed= 3.6x    frame=27070 fps= 86 q=-0.0 size=N/A time=00:18:49.04 bitrate=N/A speed= 3.6x    frame=27114 fps= 86 q=-0.0 size=N/A time=00:18:50.87 bitrate=N/A speed= 3.6x    frame=27159 fps= 86 q=-0.0 size=N/A time=00:18:52.75 bitrate=N/A speed= 3.6x    frame=27204 fps= 86 q=-0.0 size=N/A time=00:18:54.63 bitrate=N/A speed= 3.6x    frame=27249 fps= 86 q=-0.0 size=N/A time=00:18:56.51 bitrate=N/A speed= 3.6x    frame=27295 fps= 86 q=-0.0 size=N/A time=00:18:58.42 bitrate=N/A speed= 3.6x    frame=27339 fps= 86 q=-0.0 size=N/A time=00:19:00.26 bitrate=N/A speed= 3.6x    frame=27386 fps= 86 q=-0.0 size=N/A time=00:19:02.22 bitrate=N/A speed= 3.6x    frame=27431 fps= 86 q=-0.0 size=N/A time=00:19:04.10 bitrate=N/A speed= 3.6x    frame=27476 fps= 86 q=-0.0 size=N/A time=00:19:05.97 bitrate=N/A speed= 3.6x    frame=27518 fps= 86 q=-0.0 size=N/A time=00:19:07.72 bitrate=N/A speed= 3.6x    frame=27559 fps= 86 q=-0.0 size=N/A time=00:19:09.43 bitrate=N/A speed= 3.6x    frame=27598 fps= 86 q=-0.0 size=N/A time=00:19:11.06 bitrate=N/A speed= 3.6x    frame=27640 fps= 86 q=-0.0 size=N/A time=00:19:12.81 bitrate=N/A speed= 3.6x    frame=27678 fps= 86 q=-0.0 size=N/A time=00:19:14.40 bitrate=N/A speed= 3.6x    frame=27720 fps= 86 q=-0.0 size=N/A time=00:19:16.15 bitrate=N/A speed= 3.6x    frame=27766 fps= 86 q=-0.0 size=N/A time=00:19:18.07 bitrate=N/A speed= 3.6x    frame=27811 fps= 86 q=-0.0 size=N/A time=00:19:19.95 bitrate=N/A speed= 3.6x    frame=27855 fps= 86 q=-0.0 size=N/A time=00:19:21.78 bitrate=N/A speed= 3.6x    frame=27899 fps= 86 q=-0.0 size=N/A time=00:19:23.62 bitrate=N/A speed= 3.6x    frame=27945 fps= 86 q=-0.0 size=N/A time=00:19:25.53 bitrate=N/A speed= 3.6x    frame=27989 fps= 86 q=-0.0 size=N/A time=00:19:27.37 bitrate=N/A speed= 3.6x    frame=28035 fps= 86 q=-0.0 size=N/A time=00:19:29.29 bitrate=N/A speed= 3.6x    frame=28082 fps= 86 q=-0.0 size=N/A time=00:19:31.25 bitrate=N/A speed= 3.6x    frame=28125 fps= 86 q=-0.0 size=N/A time=00:19:33.04 bitrate=N/A speed= 3.6x    frame=28170 fps= 86 q=-0.0 size=N/A time=00:19:34.92 bitrate=N/A speed= 3.6x    frame=28214 fps= 86 q=-0.0 size=N/A time=00:19:36.75 bitrate=N/A speed= 3.6x    frame=28261 fps= 86 q=-0.0 size=N/A time=00:19:38.71 bitrate=N/A speed= 3.6x    frame=28304 fps= 86 q=-0.0 size=N/A time=00:19:40.51 bitrate=N/A speed= 3.6x    frame=28349 fps= 86 q=-0.0 size=N/A time=00:19:42.38 bitrate=N/A speed= 3.6x    frame=28393 fps= 86 q=-0.0 size=N/A time=00:19:44.22 bitrate=N/A speed= 3.6x    frame=28436 fps= 86 q=-0.0 size=N/A time=00:19:46.01 bitrate=N/A speed= 3.6x    frame=28483 fps= 86 q=-0.0 size=N/A time=00:19:47.97 bitrate=N/A speed= 3.6x    frame=28528 fps= 86 q=-0.0 size=N/A time=00:19:49.85 bitrate=N/A speed= 3.6x    frame=28573 fps= 86 q=-0.0 size=N/A time=00:19:51.73 bitrate=N/A speed= 3.6x    frame=28619 fps= 86 q=-0.0 size=N/A time=00:19:53.65 bitrate=N/A speed= 3.6x    frame=28663 fps= 86 q=-0.0 size=N/A time=00:19:55.48 bitrate=N/A speed= 3.6x    frame=28707 fps= 86 q=-0.0 size=N/A time=00:19:57.32 bitrate=N/A speed= 3.6x    frame=28752 fps= 86 q=-0.0 size=N/A time=00:19:59.19 bitrate=N/A speed= 3.6x    frame=28795 fps= 86 q=-0.0 size=N/A time=00:20:00.99 bitrate=N/A speed= 3.6x    frame=28836 fps= 86 q=-0.0 size=N/A time=00:20:02.70 bitrate=N/A speed= 3.6x    frame=28883 fps= 86 q=-0.0 size=N/A time=00:20:04.66 bitrate=N/A speed= 3.6x    frame=28928 fps= 86 q=-0.0 size=N/A time=00:20:06.53 bitrate=N/A speed= 3.6x    frame=28972 fps= 86 q=-0.0 size=N/A time=00:20:08.37 bitrate=N/A speed= 3.6x    frame=29016 fps= 86 q=-0.0 size=N/A time=00:20:10.20 bitrate=N/A speed= 3.6x    frame=29060 fps= 86 q=-0.0 size=N/A time=00:20:12.04 bitrate=N/A speed= 3.6x    frame=29105 fps= 86 q=-0.0 size=N/A time=00:20:13.92 bitrate=N/A speed= 3.6x    frame=29149 fps= 86 q=-0.0 size=N/A time=00:20:15.75 bitrate=N/A speed= 3.6x    frame=29195 fps= 86 q=-0.0 size=N/A time=00:20:17.67 bitrate=N/A speed= 3.6x    frame=29240 fps= 86 q=-0.0 size=N/A time=00:20:19.55 bitrate=N/A speed= 3.6x    frame=29286 fps= 86 q=-0.0 size=N/A time=00:20:21.47 bitrate=N/A speed= 3.6x    frame=29329 fps= 86 q=-0.0 size=N/A time=00:20:23.26 bitrate=N/A speed= 3.6x    frame=29376 fps= 86 q=-0.0 size=N/A time=00:20:25.22 bitrate=N/A speed= 3.6x    frame=29420 fps= 86 q=-0.0 size=N/A time=00:20:27.05 bitrate=N/A speed= 3.6x    frame=29465 fps= 86 q=-0.0 size=N/A time=00:20:28.93 bitrate=N/A speed= 3.6x    frame=29507 fps= 86 q=-0.0 size=N/A time=00:20:30.68 bitrate=N/A speed= 3.6x    frame=29551 fps= 86 q=-0.0 size=N/A time=00:20:32.52 bitrate=N/A speed= 3.6x    frame=29594 fps= 86 q=-0.0 size=N/A time=00:20:34.31 bitrate=N/A speed= 3.6x    frame=29636 fps= 86 q=-0.0 size=N/A time=00:20:36.06 bitrate=N/A speed= 3.6x    frame=29680 fps= 86 q=-0.0 size=N/A time=00:20:37.90 bitrate=N/A speed= 3.6x    frame=29723 fps= 86 q=-0.0 size=N/A time=00:20:39.69 bitrate=N/A speed= 3.6x    frame=29770 fps= 86 q=-0.0 size=N/A time=00:20:41.65 bitrate=N/A speed= 3.6x    frame=29814 fps= 86 q=-0.0 size=N/A time=00:20:43.49 bitrate=N/A speed= 3.6x    frame=29855 fps= 86 q=-0.0 size=N/A time=00:20:45.20 bitrate=N/A speed= 3.6x    frame=29900 fps= 86 q=-0.0 size=N/A time=00:20:47.07 bitrate=N/A speed= 3.6x    frame=29944 fps= 86 q=-0.0 size=N/A time=00:20:48.91 bitrate=N/A speed= 3.6x    frame=29987 fps= 86 q=-0.0 size=N/A time=00:20:50.70 bitrate=N/A speed= 3.6x    frame=30032 fps= 86 q=-0.0 size=N/A time=00:20:52.58 bitrate=N/A speed= 3.6x    frame=30074 fps= 86 q=-0.0 size=N/A time=00:20:54.33 bitrate=N/A speed= 3.6x    frame=30116 fps= 86 q=-0.0 size=N/A time=00:20:56.08 bitrate=N/A speed= 3.6x    frame=30157 fps= 86 q=-0.0 size=N/A time=00:20:57.79 bitrate=N/A speed= 3.6x    frame=30201 fps= 86 q=-0.0 size=N/A time=00:20:59.63 bitrate=N/A speed= 3.6x    frame=30244 fps= 86 q=-0.0 size=N/A time=00:21:01.42 bitrate=N/A speed= 3.6x    frame=30289 fps= 86 q=-0.0 size=N/A time=00:21:03.30 bitrate=N/A speed= 3.6x    frame=30333 fps= 86 q=-0.0 size=N/A time=00:21:05.13 bitrate=N/A speed= 3.6x    frame=30377 fps= 86 q=-0.0 size=N/A time=00:21:06.97 bitrate=N/A speed= 3.6x    frame=30424 fps= 86 q=-0.0 size=N/A time=00:21:08.93 bitrate=N/A speed= 3.6x    frame=30469 fps= 86 q=-0.0 size=N/A time=00:21:10.81 bitrate=N/A speed= 3.6x    frame=30512 fps= 86 q=-0.0 size=N/A time=00:21:12.60 bitrate=N/A speed= 3.6x    frame=30555 fps= 86 q=-0.0 size=N/A time=00:21:14.39 bitrate=N/A speed= 3.6x    frame=30601 fps= 86 q=-0.0 size=N/A time=00:21:16.31 bitrate=N/A speed= 3.6x    frame=30646 fps= 86 q=-0.0 size=N/A time=00:21:18.19 bitrate=N/A speed= 3.6x    frame=30693 fps= 86 q=-0.0 size=N/A time=00:21:20.15 bitrate=N/A speed= 3.6x    frame=30735 fps= 86 q=-0.0 size=N/A time=00:21:21.90 bitrate=N/A speed= 3.6x    frame=30781 fps= 86 q=-0.0 size=N/A time=00:21:23.82 bitrate=N/A speed= 3.6x    frame=30822 fps= 86 q=-0.0 size=N/A time=00:21:25.53 bitrate=N/A speed= 3.6x    frame=30866 fps= 86 q=-0.0 size=N/A time=00:21:27.36 bitrate=N/A speed= 3.6x    frame=30909 fps= 86 q=-0.0 size=N/A time=00:21:29.16 bitrate=N/A speed= 3.6x    frame=30952 fps= 86 q=-0.0 size=N/A time=00:21:30.95 bitrate=N/A speed=3.59x    frame=30994 fps= 86 q=-0.0 size=N/A time=00:21:32.70 bitrate=N/A speed=3.59x    frame=31039 fps= 86 q=-0.0 size=N/A time=00:21:34.58 bitrate=N/A speed=3.59x    frame=31084 fps= 86 q=-0.0 size=N/A time=00:21:36.46 bitrate=N/A speed=3.59x    frame=31127 fps= 86 q=-0.0 size=N/A time=00:21:38.25 bitrate=N/A speed=3.59x    frame=31172 fps= 86 q=-0.0 size=N/A time=00:21:40.13 bitrate=N/A speed=3.59x    frame=31216 fps= 86 q=-0.0 size=N/A time=00:21:41.96 bitrate=N/A speed=3.59x    frame=31259 fps= 86 q=-0.0 size=N/A time=00:21:43.76 bitrate=N/A speed=3.59x    frame=31302 fps= 86 q=-0.0 size=N/A time=00:21:45.55 bitrate=N/A speed=3.59x    frame=31347 fps= 86 q=-0.0 size=N/A time=00:21:47.43 bitrate=N/A speed=3.59x    frame=31391 fps= 86 q=-0.0 size=N/A time=00:21:49.26 bitrate=N/A speed=3.59x    frame=31437 fps= 86 q=-0.0 size=N/A time=00:21:51.18 bitrate=N/A speed=3.59x    frame=31482 fps= 86 q=-0.0 size=N/A time=00:21:53.06 bitrate=N/A speed=3.59x    frame=31528 fps= 86 q=-0.0 size=N/A time=00:21:54.98 bitrate=N/A speed=3.59x    frame=31570 fps= 86 q=-0.0 size=N/A time=00:21:56.73 bitrate=N/A speed=3.59x    frame=31613 fps= 86 q=-0.0 size=N/A time=00:21:58.52 bitrate=N/A speed=3.59x    frame=31657 fps= 86 q=-0.0 size=N/A time=00:22:00.36 bitrate=N/A speed=3.59x    frame=31700 fps= 86 q=-0.0 size=N/A time=00:22:02.15 bitrate=N/A speed=3.59x    frame=31744 fps= 86 q=-0.0 size=N/A time=00:22:03.98 bitrate=N/A speed=3.59x    frame=31788 fps= 86 q=-0.0 size=N/A time=00:22:05.82 bitrate=N/A speed=3.59x    frame=31832 fps= 86 q=-0.0 size=N/A time=00:22:07.65 bitrate=N/A speed=3.59x    frame=31877 fps= 86 q=-0.0 size=N/A time=00:22:09.53 bitrate=N/A speed=3.59x    frame=31919 fps= 86 q=-0.0 size=N/A time=00:22:11.28 bitrate=N/A speed=3.59x    frame=31962 fps= 86 q=-0.0 size=N/A time=00:22:13.08 bitrate=N/A speed=3.59x    frame=32008 fps= 86 q=-0.0 size=N/A time=00:22:15.00 bitrate=N/A speed=3.59x    frame=32051 fps= 86 q=-0.0 size=N/A time=00:22:16.79 bitrate=N/A speed=3.59x    frame=32093 fps= 86 q=-0.0 size=N/A time=00:22:18.54 bitrate=N/A speed=3.59x    frame=32138 fps= 86 q=-0.0 size=N/A time=00:22:20.42 bitrate=N/A speed=3.59x    frame=32184 fps= 86 q=-0.0 size=N/A time=00:22:22.34 bitrate=N/A speed=3.59x    frame=32228 fps= 86 q=-0.0 size=N/A time=00:22:24.17 bitrate=N/A speed=3.59x    frame=32275 fps= 86 q=-0.0 size=N/A time=00:22:26.13 bitrate=N/A speed=3.59x    frame=32318 fps= 86 q=-0.0 size=N/A time=00:22:27.92 bitrate=N/A speed=3.59x    frame=32359 fps= 86 q=-0.0 size=N/A time=00:22:29.63 bitrate=N/A speed=3.59x    frame=32404 fps= 86 q=-0.0 size=N/A time=00:22:31.51 bitrate=N/A speed=3.59x    frame=32451 fps= 86 q=-0.0 size=N/A time=00:22:33.47 bitrate=N/A speed=3.59x    frame=32495 fps= 86 q=-0.0 size=N/A time=00:22:35.31 bitrate=N/A speed=3.59x    frame=32540 fps= 86 q=-0.0 size=N/A time=00:22:37.18 bitrate=N/A speed=3.59x    frame=32583 fps= 86 q=-0.0 size=N/A time=00:22:38.98 bitrate=N/A speed=3.59x    frame=32627 fps= 86 q=-0.0 size=N/A time=00:22:40.81 bitrate=N/A speed=3.59x    frame=32673 fps= 86 q=-0.0 size=N/A time=00:22:42.73 bitrate=N/A speed=3.59x    frame=32717 fps= 86 q=-0.0 size=N/A time=00:22:44.57 bitrate=N/A speed=3.59x    frame=32761 fps= 86 q=-0.0 size=N/A time=00:22:46.40 bitrate=N/A speed=3.59x    frame=32807 fps= 86 q=-0.0 size=N/A time=00:22:48.32 bitrate=N/A speed=3.59x    frame=32852 fps= 86 q=-0.0 size=N/A time=00:22:50.20 bitrate=N/A speed=3.59x    frame=32897 fps= 86 q=-0.0 size=N/A time=00:22:52.07 bitrate=N/A speed=3.59x    frame=32941 fps= 86 q=-0.0 size=N/A time=00:22:53.91 bitrate=N/A speed=3.59x    frame=32984 fps= 86 q=-0.0 size=N/A time=00:22:55.70 bitrate=N/A speed=3.59x    frame=33029 fps= 86 q=-0.0 size=N/A time=00:22:57.58 bitrate=N/A speed=3.59x    frame=33073 fps= 86 q=-0.0 size=N/A time=00:22:59.41 bitrate=N/A speed=3.59x    frame=33117 fps= 86 q=-0.0 size=N/A time=00:23:01.25 bitrate=N/A speed=3.59x    frame=33159 fps= 86 q=-0.0 size=N/A time=00:23:03.00 bitrate=N/A speed=3.59x    frame=33206 fps= 86 q=-0.0 size=N/A time=00:23:04.96 bitrate=N/A speed=3.59x    frame=33249 fps= 86 q=-0.0 size=N/A time=00:23:06.76 bitrate=N/A speed=3.59x    frame=33296 fps= 86 q=-0.0 size=N/A time=00:23:08.72 bitrate=N/A speed=3.59x    frame=33339 fps= 86 q=-0.0 size=N/A time=00:23:10.51 bitrate=N/A speed=3.59x    frame=33383 fps= 86 q=-0.0 size=N/A time=00:23:12.34 bitrate=N/A speed=3.59x    frame=33426 fps= 86 q=-0.0 size=N/A time=00:23:14.14 bitrate=N/A speed=3.59x    frame=33472 fps= 86 q=-0.0 size=N/A time=00:23:16.06 bitrate=N/A speed=3.59x    frame=33516 fps= 86 q=-0.0 size=N/A time=00:23:17.89 bitrate=N/A speed=3.59x    frame=33562 fps= 86 q=-0.0 size=N/A time=00:23:19.81 bitrate=N/A speed=3.59x    frame=33609 fps= 86 q=-0.0 size=N/A time=00:23:21.77 bitrate=N/A speed=3.59x    frame=33655 fps= 86 q=-0.0 size=N/A time=00:23:23.69 bitrate=N/A speed=3.59x    frame=33698 fps= 86 q=-0.0 size=N/A time=00:23:25.48 bitrate=N/A speed=3.59x    frame=33744 fps= 86 q=-0.0 size=N/A time=00:23:27.40 bitrate=N/A speed=3.59x    frame=33788 fps= 86 q=-0.0 size=N/A time=00:23:29.24 bitrate=N/A speed=3.59x    frame=33832 fps= 86 q=-0.0 size=N/A time=00:23:31.07 bitrate=N/A speed=3.59x    frame=33879 fps= 86 q=-0.0 size=N/A time=00:23:33.03 bitrate=N/A speed=3.59x    frame=33923 fps= 86 q=-0.0 size=N/A time=00:23:34.87 bitrate=N/A speed=3.59x    frame=33967 fps= 86 q=-0.0 size=N/A time=00:23:36.70 bitrate=N/A speed=3.59x    frame=34012 fps= 86 q=-0.0 size=N/A time=00:23:38.58 bitrate=N/A speed=3.59x    frame=34056 fps= 86 q=-0.0 size=N/A time=00:23:40.41 bitrate=N/A speed=3.59x    frame=34101 fps= 86 q=-0.0 size=N/A time=00:23:42.29 bitrate=N/A speed=3.59x    frame=34146 fps= 86 q=-0.0 size=N/A time=00:23:44.17 bitrate=N/A speed=3.59x    frame=34190 fps= 86 q=-0.0 size=N/A time=00:23:46.00 bitrate=N/A speed=3.59x    frame=34233 fps= 86 q=-0.0 size=N/A time=00:23:47.80 bitrate=N/A speed=3.59x    frame=34276 fps= 86 q=-0.0 size=N/A time=00:23:49.59 bitrate=N/A speed=3.59x    frame=34322 fps= 86 q=-0.0 size=N/A time=00:23:51.51 bitrate=N/A speed=3.59x    frame=34366 fps= 86 q=-0.0 size=N/A time=00:23:53.34 bitrate=N/A speed=3.59x    frame=34413 fps= 86 q=-0.0 size=N/A time=00:23:55.30 bitrate=N/A speed=3.59x    frame=34457 fps= 86 q=-0.0 size=N/A time=00:23:57.14 bitrate=N/A speed=3.59x    frame=34500 fps= 86 q=-0.0 size=N/A time=00:23:58.93 bitrate=N/A speed=3.59x    frame=34545 fps= 86 q=-0.0 size=N/A time=00:24:00.81 bitrate=N/A speed=3.59x    frame=34589 fps= 86 q=-0.0 size=N/A time=00:24:02.64 bitrate=N/A speed=3.59x    frame=34633 fps= 86 q=-0.0 size=N/A time=00:24:04.48 bitrate=N/A speed=3.59x    frame=34678 fps= 86 q=-0.0 size=N/A time=00:24:06.36 bitrate=N/A speed=3.59x    frame=34719 fps= 86 q=-0.0 size=N/A time=00:24:08.07 bitrate=N/A speed=3.59x    frame=34762 fps= 86 q=-0.0 size=N/A time=00:24:09.86 bitrate=N/A speed=3.59x    frame=34806 fps= 86 q=-0.0 size=N/A time=00:24:11.74 bitrate=N/A speed=3.59x    frame=34851 fps= 86 q=-0.0 size=N/A time=00:24:13.57 bitrate=N/A speed=3.59x    frame=34893 fps= 86 q=-0.0 size=N/A time=00:24:15.32 bitrate=N/A speed=3.59x    frame=34939 fps= 86 q=-0.0 size=N/A time=00:24:17.24 bitrate=N/A speed=3.59x    frame=34983 fps= 86 q=-0.0 size=N/A time=00:24:19.08 bitrate=N/A speed=3.59x    frame=35027 fps= 86 q=-0.0 size=N/A time=00:24:20.91 bitrate=N/A speed=3.59x    frame=35071 fps= 86 q=-0.0 size=N/A time=00:24:22.75 bitrate=N/A speed=3.59x    frame=35118 fps= 86 q=-0.0 size=N/A time=00:24:24.71 bitrate=N/A speed=3.59x    frame=35162 fps= 86 q=-0.0 size=N/A time=00:24:26.54 bitrate=N/A speed=3.59x    frame=35206 fps= 86 q=-0.0 size=N/A time=00:24:28.38 bitrate=N/A speed=3.59x    frame=35252 fps= 86 q=-0.0 size=N/A time=00:24:30.30 bitrate=N/A speed=3.59x    frame=35295 fps= 86 q=-0.0 size=N/A time=00:24:32.09 bitrate=N/A speed=3.59x    frame=35341 fps= 86 q=-0.0 size=N/A time=00:24:34.01 bitrate=N/A speed=3.59x    frame=35385 fps= 86 q=-0.0 size=N/A time=00:24:35.84 bitrate=N/A speed=3.59x    frame=35428 fps= 86 q=-0.0 size=N/A time=00:24:37.64 bitrate=N/A speed=3.59x    frame=35471 fps= 86 q=-0.0 size=N/A time=00:24:39.43 bitrate=N/A speed=3.59x    frame=35516 fps= 86 q=-0.0 size=N/A time=00:24:41.31 bitrate=N/A speed=3.59x    frame=35563 fps= 86 q=-0.0 size=N/A time=00:24:43.27 bitrate=N/A speed=3.59x    frame=35607 fps= 86 q=-0.0 size=N/A time=00:24:45.10 bitrate=N/A speed=3.59x    frame=35650 fps= 86 q=-0.0 size=N/A time=00:24:46.90 bitrate=N/A speed=3.59x    frame=35694 fps= 86 q=-0.0 size=N/A time=00:24:48.73 bitrate=N/A speed=3.59x    frame=35738 fps= 86 q=-0.0 size=N/A time=00:24:50.57 bitrate=N/A speed=3.59x    frame=35781 fps= 86 q=-0.0 size=N/A time=00:24:52.36 bitrate=N/A speed=3.59x    frame=35823 fps= 86 q=-0.0 size=N/A time=00:24:54.11 bitrate=N/A speed=3.59x    frame=35865 fps= 86 q=-0.0 size=N/A time=00:24:55.86 bitrate=N/A speed=3.59x    frame=35908 fps= 86 q=-0.0 size=N/A time=00:24:57.66 bitrate=N/A speed=3.59x    frame=35951 fps= 86 q=-0.0 size=N/A time=00:24:59.45 bitrate=N/A speed=3.59x    frame=35994 fps= 86 q=-0.0 size=N/A time=00:25:01.24 bitrate=N/A speed=3.59x    frame=36039 fps= 86 q=-0.0 size=N/A time=00:25:03.12 bitrate=N/A speed=3.59x    frame=36082 fps= 86 q=-0.0 size=N/A time=00:25:04.92 bitrate=N/A speed=3.59x    frame=36125 fps= 86 q=-0.0 size=N/A time=00:25:06.71 bitrate=N/A speed=3.59x    frame=36170 fps= 86 q=-0.0 size=N/A time=00:25:08.59 bitrate=N/A speed=3.59x    frame=36212 fps= 86 q=-0.0 size=N/A time=00:25:10.34 bitrate=N/A speed=3.59x    frame=36258 fps= 86 q=-0.0 size=N/A time=00:25:12.26 bitrate=N/A speed=3.59x    frame=36302 fps= 86 q=-0.0 size=N/A time=00:25:14.09 bitrate=N/A speed=3.59x    frame=36348 fps= 86 q=-0.0 size=N/A time=00:25:16.01 bitrate=N/A speed=3.59x    [Parsed_libvmaf_10 @ 000002666f0970c0] VMAF score: 95.614880
[out#0/null @ 0000026661c3d400] video:15623KiB audio:284492KiB subtitle:0KiB other streams:0KiB global headers:0KiB muxing overhead: unknown
frame=36359 fps= 86 q=-0.0 Lsize=N/A time=00:25:16.47 bitrate=N/A speed=3.58x    
